<svg width="200" height="200" viewBox="0 0 200 200" fill="none" xmlns="http://www.w3.org/2000/svg">
<path d="M137.5 155.1C114.296 141.704 85.708 141.704 62.5043 155.1L25 90.1405C71.4117 63.3451 128.596 63.3451 175 90.1405L137.5 155.1Z" stroke="black" stroke-width="10"/>
<path d="M146.61 42.693C149.146 46.7206 150.491 51.3828 150.491 56.1419V62.6974" stroke="black" stroke-width="10.5"/>
<path d="M129.551 31.264C133.679 31.978 137.564 33.7079 140.857 36.2978" stroke="black" stroke-width="10.5"/>
<path d="M109.644 36.2916C112.935 33.7052 116.818 31.9776 120.942 31.2643" stroke="black" stroke-width="10.5"/>
<path d="M103.88 42.699C101.347 46.7253 100.003 51.3852 100.003 56.1419V57.9932" stroke="black" stroke-width="10.5"/>
<path d="M96.1193 42.693C98.6544 46.7206 99.9996 51.3828 99.9997 56.1419" stroke="black" stroke-width="10.5"/>
<path d="M79.0554 31.264C83.1833 31.978 87.0687 33.7079 90.3613 36.2978" stroke="black" stroke-width="10.5"/>
<path d="M59.1527 36.2907C62.4436 33.7045 66.3258 31.977 70.45 31.2636" stroke="black" stroke-width="10.5"/>
<path d="M53.3818 42.699C50.8492 46.7253 49.5054 51.3852 49.5054 56.1419V62.6973" stroke="black" stroke-width="10.5"/>
<path d="M100 82.1846V94.0445" stroke="black" stroke-width="10.5"/>
<path d="M100 101.621V113.481" stroke="black" stroke-width="10.5"/>
<path d="M100 121.058V132.918" stroke="black" stroke-width="10.5"/>
<path d="M100 157.234V169.094" stroke="black" stroke-width="10.5"/>
</svg>
