<svg width="200" height="200" viewBox="0 0 200 200" fill="none" xmlns="http://www.w3.org/2000/svg">
<path d="M29.3751 46.9685H170.792C177.765 46.9685 183.418 52.6216 183.418 59.595V140.405C183.418 147.378 177.765 153.031 170.792 153.031H29.3751C22.4016 153.031 16.7485 147.378 16.7485 140.405V59.595C16.7485 52.6216 22.4016 46.9685 29.3751 46.9685ZM29.3751 52.0191C25.191 52.0191 21.7991 55.411 21.7991 59.595V140.405C21.7991 144.589 25.191 147.981 29.3751 147.981H170.792C174.976 147.981 178.368 144.589 178.368 140.405V59.595C178.368 55.411 174.976 52.0191 170.792 52.0191H29.3751Z" fill="#3EB489" stroke="#3EB489" stroke-width="1.5"/>
<path d="M114.027 86.2604C113.118 85.0004 111.893 84.1954 110.459 84.0554C107.31 83.7404 104.651 86.2254 104.651 86.2254L102.587 80.1704C102.517 79.8904 100.803 73.7305 95.0305 72.4005C90.0976 71.2805 80.2319 71.0005 79.8121 71.0005C79.4972 71.0005 71.0658 70.9305 65.2584 72.4355C58.9261 74.0805 57.3168 79.6454 57.2818 79.8204L55.3576 86.2604C55.3576 86.2604 52.5239 83.6354 49.5152 84.0204C48.1158 84.1954 46.8913 84.9304 45.9467 86.2254C44.7922 87.8354 44.6873 89.8653 45.6668 91.6153C46.1566 92.4903 46.8913 93.1903 47.7659 93.7153C47.1012 94.7303 46.4015 96.2703 46.4015 98.3703V123.15C46.4015 125.25 48.0808 127 50.0749 127H57.4218C59.4159 127 61.0602 125.25 61.0602 123.15V118.985H98.6689V123.185C98.6689 125.285 100.348 127 102.377 127H109.689C111.683 127 113.328 125.285 113.328 123.185V97.9853C113.328 97.9853 113.398 95.8503 112.173 93.7503C113.048 93.2253 113.782 92.5253 114.307 91.6153C115.322 89.8653 115.217 87.8354 114.027 86.2254V86.2604ZM110.074 87.5554C110.354 87.5554 110.739 87.6954 111.193 88.3253C111.543 88.8153 111.578 89.3753 111.263 89.9003C110.984 90.3903 110.389 90.8453 109.689 91.0553L107.065 88.8503C107.065 88.8503 108.919 87.3804 110.109 87.5204L110.074 87.5554ZM109.724 115.52H102.167V113.42C102.167 108.73 98.494 107.225 96.4299 107.085H63.1943C61.0602 107.085 59.8007 107.96 59.101 108.695C57.4567 110.445 57.5617 112.86 57.5617 113.035V115.485H49.935V98.3703C49.935 96.2353 51.1595 95.0453 51.1595 95.0453L56.3022 90.6703C59.4159 91.3353 67.8822 92.9103 79.8121 92.9103C86.774 92.9103 94.9605 92.3503 103.882 90.8103L108.22 94.3803C109.829 95.7803 109.829 97.7753 109.829 97.9153L109.724 115.485V115.52ZM60.6404 80.8704C60.6404 80.8704 61.7949 76.9855 66.133 75.8655C71.4857 74.4655 79.7071 74.5355 79.7421 74.5355C79.847 74.5355 89.6778 74.8155 94.2608 75.8655C97.9692 76.7055 99.1937 81.0804 99.2287 81.2204L101.433 87.6954C80.8966 90.9853 64.6636 88.7453 58.5413 87.5904L60.6404 80.8704ZM48.7805 88.3253C49.2353 87.6954 49.6201 87.5904 49.9 87.5554C51.1944 87.3804 52.9787 88.9203 52.9787 88.9203L50.4248 91.0903C49.6551 90.9153 49.0254 90.4253 48.7105 89.9003C48.3957 89.3403 48.4306 88.8153 48.7805 88.3253ZM57.4218 123.5H49.9V119.055H57.4567L57.3868 123.5H57.4218ZM61.0602 115.52V112.965C61.0602 112.65 61.1301 111.67 61.6549 111.11C61.7949 110.97 62.1447 110.585 63.1943 110.585H96.3249C96.8847 110.62 98.6689 111.005 98.6689 113.42V115.52H61.0602ZM102.202 123.5V119.02H109.724V123.5H102.202Z" fill="#3EB489"/>
<path d="M64.9085 96.0253L58.2614 94.5903C56.4422 94.2403 54.7979 94.7303 53.7833 95.8853C52.8387 96.9703 52.5589 98.4753 53.0486 100.05L53.6084 101.8C54.1682 103.55 56.0224 104.775 58.0865 104.775H63.859C66.3429 104.775 68.512 102.745 68.512 100.4C68.512 98.2653 67.0076 96.4803 64.9085 96.0603V96.0253ZM63.859 101.24H58.0865C57.4567 101.24 57.0019 100.925 56.932 100.68L56.3722 98.9653C56.2673 98.6153 56.2673 98.3353 56.3722 98.1953C56.5121 98.0553 56.932 97.9153 57.5617 98.0203L64.2088 99.4553C64.6986 99.5603 65.0135 99.9102 65.0135 100.365C65.0135 100.61 64.5587 101.205 63.859 101.205V101.24Z" fill="#3EB489"/>
<path d="M101.957 94.6253L95.3803 96.0253C93.2462 96.4453 91.7419 98.2303 91.7419 100.4C91.7419 102.71 93.911 104.775 96.3949 104.775H102.167C104.266 104.775 106.086 103.585 106.645 101.835L107.205 100.12C107.695 98.5453 107.415 97.0403 106.471 95.9203C105.456 94.7653 103.812 94.2753 101.922 94.6603L101.957 94.6253ZM103.917 99.0003L103.357 100.715C103.287 100.925 102.832 101.24 102.202 101.24H96.4299C95.7302 101.24 95.2754 100.645 95.2754 100.365C95.2754 99.9102 95.5902 99.5603 96.115 99.4553L102.657 98.0553C102.867 98.0553 103.007 98.0203 103.182 98.0203C103.567 98.0203 103.812 98.1253 103.917 98.2303C104.057 98.3703 104.057 98.6503 103.952 99.0003H103.917Z" fill="#3EB489"/>
<path d="M114.027 86.2604C113.118 85.0004 111.893 84.1954 110.459 84.0554C107.31 83.7404 104.651 86.2254 104.651 86.2254L102.587 80.1704C102.517 79.8904 100.803 73.7305 95.0305 72.4005C90.0976 71.2805 80.2319 71.0005 79.8121 71.0005C79.4972 71.0005 71.0658 70.9305 65.2584 72.4355C58.9261 74.0805 57.3168 79.6454 57.2818 79.8204L55.3576 86.2604C55.3576 86.2604 52.5239 83.6354 49.5152 84.0204C48.1158 84.1954 46.8913 84.9304 45.9467 86.2254C44.7922 87.8354 44.6873 89.8653 45.6668 91.6153C46.1566 92.4903 46.8913 93.1903 47.7659 93.7153C47.1012 94.7303 46.4015 96.2703 46.4015 98.3703V123.15C46.4015 125.25 48.0808 127 50.0749 127H57.4218C59.4159 127 61.0602 125.25 61.0602 123.15V118.985H98.6689V123.185C98.6689 125.285 100.348 127 102.377 127H109.689C111.683 127 113.328 125.285 113.328 123.185V97.9853C113.328 97.9853 113.398 95.8503 112.173 93.7503C113.048 93.2253 113.782 92.5253 114.307 91.6153C115.322 89.8653 115.217 87.8354 114.027 86.2254V86.2604ZM110.074 87.5554C110.354 87.5554 110.739 87.6954 111.193 88.3253C111.543 88.8153 111.578 89.3753 111.263 89.9003C110.984 90.3903 110.389 90.8453 109.689 91.0553L107.065 88.8503C107.065 88.8503 108.919 87.3804 110.109 87.5204L110.074 87.5554ZM109.724 115.52H102.167V113.42C102.167 108.73 98.494 107.225 96.4299 107.085H63.1943C61.0602 107.085 59.8007 107.96 59.101 108.695C57.4567 110.445 57.5617 112.86 57.5617 113.035V115.485H49.935V98.3703C49.935 96.2353 51.1595 95.0453 51.1595 95.0453L56.3022 90.6703C59.4159 91.3353 67.8822 92.9103 79.8121 92.9103C86.774 92.9103 94.9605 92.3503 103.882 90.8103L108.22 94.3803C109.829 95.7803 109.829 97.7753 109.829 97.9153L109.724 115.485V115.52ZM60.6404 80.8704C60.6404 80.8704 61.7949 76.9855 66.133 75.8655C71.4857 74.4655 79.7071 74.5355 79.7421 74.5355C79.847 74.5355 89.6778 74.8155 94.2608 75.8655C97.9692 76.7055 99.1937 81.0804 99.2287 81.2204L101.433 87.6954C80.8966 90.9853 64.6636 88.7453 58.5413 87.5904L60.6404 80.8704ZM48.7805 88.3253C49.2353 87.6954 49.6201 87.5904 49.9 87.5554C51.1944 87.3804 52.9787 88.9203 52.9787 88.9203L50.4248 91.0903C49.6551 90.9153 49.0254 90.4253 48.7105 89.9003C48.3957 89.3403 48.4306 88.8153 48.7805 88.3253ZM57.4218 123.5H49.9V119.055H57.4567L57.3868 123.5H57.4218ZM61.0602 115.52V112.965C61.0602 112.65 61.1301 111.67 61.6549 111.11C61.7949 110.97 62.1447 110.585 63.1943 110.585H96.3249C96.8847 110.62 98.6689 111.005 98.6689 113.42V115.52H61.0602ZM102.202 123.5V119.02H109.724V123.5H102.202Z" stroke="#3EB489"/>
<path d="M64.9085 96.0253L58.2614 94.5903C56.4422 94.2403 54.7979 94.7303 53.7833 95.8853C52.8387 96.9703 52.5589 98.4753 53.0486 100.05L53.6084 101.8C54.1682 103.55 56.0224 104.775 58.0865 104.775H63.859C66.3429 104.775 68.512 102.745 68.512 100.4C68.512 98.2653 67.0076 96.4803 64.9085 96.0603V96.0253ZM63.859 101.24H58.0865C57.4567 101.24 57.0019 100.925 56.932 100.68L56.3722 98.9653C56.2673 98.6153 56.2673 98.3353 56.3722 98.1953C56.5121 98.0553 56.932 97.9153 57.5617 98.0203L64.2088 99.4553C64.6986 99.5603 65.0135 99.9102 65.0135 100.365C65.0135 100.61 64.5587 101.205 63.859 101.205V101.24Z" stroke="#3EB489"/>
<path d="M101.957 94.6253L95.3803 96.0253C93.2462 96.4453 91.7419 98.2303 91.7419 100.4C91.7419 102.71 93.911 104.775 96.3949 104.775H102.167C104.266 104.775 106.086 103.585 106.645 101.835L107.205 100.12C107.695 98.5453 107.415 97.0403 106.471 95.9203C105.456 94.7653 103.812 94.2753 101.922 94.6603L101.957 94.6253ZM103.917 99.0003L103.357 100.715C103.287 100.925 102.832 101.24 102.202 101.24H96.4299C95.7302 101.24 95.2754 100.645 95.2754 100.365C95.2754 99.9102 95.5902 99.5603 96.115 99.4553L102.657 98.0553C102.867 98.0553 103.007 98.0203 103.182 98.0203C103.567 98.0203 103.812 98.1253 103.917 98.2303C104.057 98.3703 104.057 98.6503 103.952 99.0003H103.917Z" stroke="#3EB489"/>
<path d="M113.027 86.2604C112.118 85.0004 110.893 84.1954 109.459 84.0554C106.31 83.7404 103.651 86.2254 103.651 86.2254L101.587 80.1704C101.517 79.8904 99.803 73.7305 94.0305 72.4005C89.0976 71.2805 79.2319 71.0005 78.8121 71.0005C78.4972 71.0005 70.0658 70.9305 64.2584 72.4355C57.9261 74.0805 56.3168 79.6454 56.2818 79.8204L54.3576 86.2604C54.3576 86.2604 51.5239 83.6354 48.5152 84.0204C47.1158 84.1954 45.8913 84.9304 44.9467 86.2254C43.7922 87.8354 43.6873 89.8653 44.6668 91.6153C45.1566 92.4903 45.8913 93.1903 46.7659 93.7153C46.1012 94.7303 45.4015 96.2703 45.4015 98.3703V123.15C45.4015 125.25 47.0808 127 49.0749 127H56.4218C58.4159 127 60.0602 125.25 60.0602 123.15V118.985H97.6689V123.185C97.6689 125.285 99.3482 127 101.377 127H108.689C110.683 127 112.328 125.285 112.328 123.185V97.9853C112.328 97.9853 112.398 95.8503 111.173 93.7503C112.048 93.2253 112.782 92.5253 113.307 91.6153C114.322 89.8653 114.217 87.8354 113.027 86.2254V86.2604ZM109.074 87.5554C109.354 87.5554 109.739 87.6954 110.193 88.3253C110.543 88.8153 110.578 89.3753 110.263 89.9003C109.984 90.3903 109.389 90.8453 108.689 91.0553L106.065 88.8503C106.065 88.8503 107.919 87.3804 109.109 87.5204L109.074 87.5554ZM108.724 115.52H101.167V113.42C101.167 108.73 97.494 107.225 95.4299 107.085H62.1943C60.0602 107.085 58.8007 107.96 58.101 108.695C56.4567 110.445 56.5617 112.86 56.5617 113.035V115.485H48.935V98.3703C48.935 96.2353 50.1595 95.0453 50.1595 95.0453L55.3022 90.6703C58.4159 91.3353 66.8822 92.9103 78.8121 92.9103C85.774 92.9103 93.9605 92.3503 102.882 90.8103L107.22 94.3803C108.829 95.7803 108.829 97.7753 108.829 97.9153L108.724 115.485V115.52ZM59.6404 80.8704C59.6404 80.8704 60.7949 76.9855 65.133 75.8655C70.4857 74.4655 78.7071 74.5355 78.7421 74.5355C78.847 74.5355 88.6778 74.8155 93.2608 75.8655C96.9692 76.7055 98.1937 81.0804 98.2287 81.2204L100.433 87.6954C79.8966 90.9853 63.6636 88.7453 57.5413 87.5904L59.6404 80.8704ZM47.7805 88.3253C48.2353 87.6954 48.6201 87.5904 48.9 87.5554C50.1944 87.3804 51.9787 88.9203 51.9787 88.9203L49.4248 91.0903C48.6551 90.9153 48.0254 90.4253 47.7105 89.9003C47.3957 89.3403 47.4306 88.8153 47.7805 88.3253ZM56.4218 123.5H48.9V119.055H56.4567L56.3868 123.5H56.4218ZM60.0602 115.52V112.965C60.0602 112.65 60.1301 111.67 60.6549 111.11C60.7949 110.97 61.1447 110.585 62.1943 110.585H95.3249C95.8847 110.62 97.6689 111.005 97.6689 113.42V115.52H60.0602ZM101.202 123.5V119.02H108.724V123.5H101.202Z" fill="#3EB489"/>
<path d="M63.9085 96.0253L57.2614 94.5903C55.4422 94.2403 53.7979 94.7303 52.7833 95.8853C51.8387 96.9703 51.5589 98.4753 52.0486 100.05L52.6084 101.8C53.1682 103.55 55.0224 104.775 57.0865 104.775H62.859C65.3429 104.775 67.512 102.745 67.512 100.4C67.512 98.2653 66.0076 96.4803 63.9085 96.0603V96.0253ZM62.859 101.24H57.0865C56.4567 101.24 56.0019 100.925 55.932 100.68L55.3722 98.9653C55.2673 98.6153 55.2673 98.3353 55.3722 98.1953C55.5121 98.0553 55.932 97.9153 56.5617 98.0203L63.2088 99.4553C63.6986 99.5603 64.0135 99.9102 64.0135 100.365C64.0135 100.61 63.5587 101.205 62.859 101.205V101.24Z" fill="#3EB489"/>
<path d="M100.957 94.6253L94.3803 96.0253C92.2462 96.4453 90.7419 98.2303 90.7419 100.4C90.7419 102.71 92.911 104.775 95.3949 104.775H101.167C103.266 104.775 105.086 103.585 105.645 101.835L106.205 100.12C106.695 98.5453 106.415 97.0403 105.471 95.9203C104.456 94.7653 102.812 94.2753 100.922 94.6603L100.957 94.6253ZM102.917 99.0003L102.357 100.715C102.287 100.925 101.832 101.24 101.202 101.24H95.4299C94.7302 101.24 94.2754 100.645 94.2754 100.365C94.2754 99.9102 94.5902 99.5603 95.115 99.4553L101.657 98.0553C101.867 98.0553 102.007 98.0203 102.182 98.0203C102.567 98.0203 102.812 98.1253 102.917 98.2303C103.057 98.3703 103.057 98.6503 102.952 99.0003H102.917Z" fill="#3EB489"/>
<path d="M113.027 86.2604C112.118 85.0004 110.893 84.1954 109.459 84.0554C106.31 83.7404 103.651 86.2254 103.651 86.2254L101.587 80.1704C101.517 79.8904 99.803 73.7305 94.0305 72.4005C89.0976 71.2805 79.2319 71.0005 78.8121 71.0005C78.4972 71.0005 70.0658 70.9305 64.2584 72.4355C57.9261 74.0805 56.3168 79.6454 56.2818 79.8204L54.3576 86.2604C54.3576 86.2604 51.5239 83.6354 48.5152 84.0204C47.1158 84.1954 45.8913 84.9304 44.9467 86.2254C43.7922 87.8354 43.6873 89.8653 44.6668 91.6153C45.1566 92.4903 45.8913 93.1903 46.7659 93.7153C46.1012 94.7303 45.4015 96.2703 45.4015 98.3703V123.15C45.4015 125.25 47.0808 127 49.0749 127H56.4218C58.4159 127 60.0602 125.25 60.0602 123.15V118.985H97.6689V123.185C97.6689 125.285 99.3482 127 101.377 127H108.689C110.683 127 112.328 125.285 112.328 123.185V97.9853C112.328 97.9853 112.398 95.8503 111.173 93.7503C112.048 93.2253 112.782 92.5253 113.307 91.6153C114.322 89.8653 114.217 87.8354 113.027 86.2254V86.2604ZM109.074 87.5554C109.354 87.5554 109.739 87.6954 110.193 88.3253C110.543 88.8153 110.578 89.3753 110.263 89.9003C109.984 90.3903 109.389 90.8453 108.689 91.0553L106.065 88.8503C106.065 88.8503 107.919 87.3804 109.109 87.5204L109.074 87.5554ZM108.724 115.52H101.167V113.42C101.167 108.73 97.494 107.225 95.4299 107.085H62.1943C60.0602 107.085 58.8007 107.96 58.101 108.695C56.4567 110.445 56.5617 112.86 56.5617 113.035V115.485H48.935V98.3703C48.935 96.2353 50.1595 95.0453 50.1595 95.0453L55.3022 90.6703C58.4159 91.3353 66.8822 92.9103 78.8121 92.9103C85.774 92.9103 93.9605 92.3503 102.882 90.8103L107.22 94.3803C108.829 95.7803 108.829 97.7753 108.829 97.9153L108.724 115.485V115.52ZM59.6404 80.8704C59.6404 80.8704 60.7949 76.9855 65.133 75.8655C70.4857 74.4655 78.7071 74.5355 78.7421 74.5355C78.847 74.5355 88.6778 74.8155 93.2608 75.8655C96.9692 76.7055 98.1937 81.0804 98.2287 81.2204L100.433 87.6954C79.8966 90.9853 63.6636 88.7453 57.5413 87.5904L59.6404 80.8704ZM47.7805 88.3253C48.2353 87.6954 48.6201 87.5904 48.9 87.5554C50.1944 87.3804 51.9787 88.9203 51.9787 88.9203L49.4248 91.0903C48.6551 90.9153 48.0254 90.4253 47.7105 89.9003C47.3957 89.3403 47.4306 88.8153 47.7805 88.3253ZM56.4218 123.5H48.9V119.055H56.4567L56.3868 123.5H56.4218ZM60.0602 115.52V112.965C60.0602 112.65 60.1301 111.67 60.6549 111.11C60.7949 110.97 61.1447 110.585 62.1943 110.585H95.3249C95.8847 110.62 97.6689 111.005 97.6689 113.42V115.52H60.0602ZM101.202 123.5V119.02H108.724V123.5H101.202Z" stroke="#3EB489"/>
<path d="M63.9085 96.0253L57.2614 94.5903C55.4422 94.2403 53.7979 94.7303 52.7833 95.8853C51.8387 96.9703 51.5589 98.4753 52.0486 100.05L52.6084 101.8C53.1682 103.55 55.0224 104.775 57.0865 104.775H62.859C65.3429 104.775 67.512 102.745 67.512 100.4C67.512 98.2653 66.0076 96.4803 63.9085 96.0603V96.0253ZM62.859 101.24H57.0865C56.4567 101.24 56.0019 100.925 55.932 100.68L55.3722 98.9653C55.2673 98.6153 55.2673 98.3353 55.3722 98.1953C55.5121 98.0553 55.932 97.9153 56.5617 98.0203L63.2088 99.4553C63.6986 99.5603 64.0135 99.9102 64.0135 100.365C64.0135 100.61 63.5587 101.205 62.859 101.205V101.24Z" stroke="#3EB489"/>
<path d="M100.957 94.6253L94.3803 96.0253C92.2462 96.4453 90.7419 98.2303 90.7419 100.4C90.7419 102.71 92.911 104.775 95.3949 104.775H101.167C103.266 104.775 105.086 103.585 105.645 101.835L106.205 100.12C106.695 98.5453 106.415 97.0403 105.471 95.9203C104.456 94.7653 102.812 94.2753 100.922 94.6603L100.957 94.6253ZM102.917 99.0003L102.357 100.715C102.287 100.925 101.832 101.24 101.202 101.24H95.4299C94.7302 101.24 94.2754 100.645 94.2754 100.365C94.2754 99.9102 94.5902 99.5603 95.115 99.4553L101.657 98.0553C101.867 98.0553 102.007 98.0203 102.182 98.0203C102.567 98.0203 102.812 98.1253 102.917 98.2303C103.057 98.3703 103.057 98.6503 102.952 99.0003H102.917Z" stroke="#3EB489"/>
<path d="M114.027 86.2604C113.118 85.0004 111.893 84.1954 110.459 84.0554C107.31 83.7404 104.651 86.2254 104.651 86.2254L102.587 80.1704C102.517 79.8904 100.803 73.7305 95.0305 72.4005C90.0976 71.2805 80.2319 71.0005 79.8121 71.0005C79.4972 71.0005 71.0658 70.9305 65.2584 72.4355C58.9261 74.0805 57.3168 79.6454 57.2818 79.8204L55.3576 86.2604C55.3576 86.2604 52.5239 83.6354 49.5152 84.0204C48.1158 84.1954 46.8913 84.9304 45.9467 86.2254C44.7922 87.8354 44.6873 89.8653 45.6668 91.6153C46.1566 92.4903 46.8913 93.1903 47.7659 93.7153C47.1012 94.7303 46.4015 96.2703 46.4015 98.3703V123.15C46.4015 125.25 48.0808 127 50.0749 127H57.4218C59.4159 127 61.0602 125.25 61.0602 123.15V118.985H98.6689V123.185C98.6689 125.285 100.348 127 102.377 127H109.689C111.683 127 113.328 125.285 113.328 123.185V97.9853C113.328 97.9853 113.398 95.8503 112.173 93.7503C113.048 93.2253 113.782 92.5253 114.307 91.6153C115.322 89.8653 115.217 87.8354 114.027 86.2254V86.2604ZM110.074 87.5554C110.354 87.5554 110.739 87.6954 111.193 88.3253C111.543 88.8153 111.578 89.3753 111.263 89.9003C110.984 90.3903 110.389 90.8453 109.689 91.0553L107.065 88.8503C107.065 88.8503 108.919 87.3804 110.109 87.5204L110.074 87.5554ZM109.724 115.52H102.167V113.42C102.167 108.73 98.494 107.225 96.4299 107.085H63.1943C61.0602 107.085 59.8007 107.96 59.101 108.695C57.4567 110.445 57.5617 112.86 57.5617 113.035V115.485H49.935V98.3703C49.935 96.2353 51.1595 95.0453 51.1595 95.0453L56.3022 90.6703C59.4159 91.3353 67.8822 92.9103 79.8121 92.9103C86.774 92.9103 94.9605 92.3503 103.882 90.8103L108.22 94.3803C109.829 95.7803 109.829 97.7753 109.829 97.9153L109.724 115.485V115.52ZM60.6404 80.8704C60.6404 80.8704 61.7949 76.9855 66.133 75.8655C71.4857 74.4655 79.7071 74.5355 79.7421 74.5355C79.847 74.5355 89.6778 74.8155 94.2608 75.8655C97.9692 76.7055 99.1937 81.0804 99.2287 81.2204L101.433 87.6954C80.8966 90.9853 64.6636 88.7453 58.5413 87.5904L60.6404 80.8704ZM48.7805 88.3253C49.2353 87.6954 49.6201 87.5904 49.9 87.5554C51.1944 87.3804 52.9787 88.9203 52.9787 88.9203L50.4248 91.0903C49.6551 90.9153 49.0254 90.4253 48.7105 89.9003C48.3957 89.3403 48.4306 88.8153 48.7805 88.3253ZM57.4218 123.5H49.9V119.055H57.4567L57.3868 123.5H57.4218ZM61.0602 115.52V112.965C61.0602 112.65 61.1301 111.67 61.6549 111.11C61.7949 110.97 62.1447 110.585 63.1943 110.585H96.3249C96.8847 110.62 98.6689 111.005 98.6689 113.42V115.52H61.0602ZM102.202 123.5V119.02H109.724V123.5H102.202Z" fill="#3EB489"/>
<path d="M64.9085 96.0253L58.2614 94.5903C56.4422 94.2403 54.7979 94.7303 53.7833 95.8853C52.8387 96.9703 52.5589 98.4753 53.0486 100.05L53.6084 101.8C54.1682 103.55 56.0224 104.775 58.0865 104.775H63.859C66.3429 104.775 68.512 102.745 68.512 100.4C68.512 98.2653 67.0076 96.4803 64.9085 96.0603V96.0253ZM63.859 101.24H58.0865C57.4567 101.24 57.0019 100.925 56.932 100.68L56.3722 98.9653C56.2673 98.6153 56.2673 98.3353 56.3722 98.1953C56.5121 98.0553 56.932 97.9153 57.5617 98.0203L64.2088 99.4553C64.6986 99.5603 65.0135 99.9102 65.0135 100.365C65.0135 100.61 64.5587 101.205 63.859 101.205V101.24Z" fill="#3EB489"/>
<path d="M101.957 94.6253L95.3803 96.0253C93.2462 96.4453 91.7419 98.2303 91.7419 100.4C91.7419 102.71 93.911 104.775 96.3949 104.775H102.167C104.266 104.775 106.086 103.585 106.645 101.835L107.205 100.12C107.695 98.5453 107.415 97.0403 106.471 95.9203C105.456 94.7653 103.812 94.2753 101.922 94.6603L101.957 94.6253ZM103.917 99.0003L103.357 100.715C103.287 100.925 102.832 101.24 102.202 101.24H96.4299C95.7302 101.24 95.2754 100.645 95.2754 100.365C95.2754 99.9102 95.5902 99.5603 96.115 99.4553L102.657 98.0553C102.867 98.0553 103.007 98.0203 103.182 98.0203C103.567 98.0203 103.812 98.1253 103.917 98.2303C104.057 98.3703 104.057 98.6503 103.952 99.0003H103.917Z" fill="#3EB489"/>
<path d="M114.027 86.2604C113.118 85.0004 111.893 84.1954 110.459 84.0554C107.31 83.7404 104.651 86.2254 104.651 86.2254L102.587 80.1704C102.517 79.8904 100.803 73.7305 95.0305 72.4005C90.0976 71.2805 80.2319 71.0005 79.8121 71.0005C79.4972 71.0005 71.0658 70.9305 65.2584 72.4355C58.9261 74.0805 57.3168 79.6454 57.2818 79.8204L55.3576 86.2604C55.3576 86.2604 52.5239 83.6354 49.5152 84.0204C48.1158 84.1954 46.8913 84.9304 45.9467 86.2254C44.7922 87.8354 44.6873 89.8653 45.6668 91.6153C46.1566 92.4903 46.8913 93.1903 47.7659 93.7153C47.1012 94.7303 46.4015 96.2703 46.4015 98.3703V123.15C46.4015 125.25 48.0808 127 50.0749 127H57.4218C59.4159 127 61.0602 125.25 61.0602 123.15V118.985H98.6689V123.185C98.6689 125.285 100.348 127 102.377 127H109.689C111.683 127 113.328 125.285 113.328 123.185V97.9853C113.328 97.9853 113.398 95.8503 112.173 93.7503C113.048 93.2253 113.782 92.5253 114.307 91.6153C115.322 89.8653 115.217 87.8354 114.027 86.2254V86.2604ZM110.074 87.5554C110.354 87.5554 110.739 87.6954 111.193 88.3253C111.543 88.8153 111.578 89.3753 111.263 89.9003C110.984 90.3903 110.389 90.8453 109.689 91.0553L107.065 88.8503C107.065 88.8503 108.919 87.3804 110.109 87.5204L110.074 87.5554ZM109.724 115.52H102.167V113.42C102.167 108.73 98.494 107.225 96.4299 107.085H63.1943C61.0602 107.085 59.8007 107.96 59.101 108.695C57.4567 110.445 57.5617 112.86 57.5617 113.035V115.485H49.935V98.3703C49.935 96.2353 51.1595 95.0453 51.1595 95.0453L56.3022 90.6703C59.4159 91.3353 67.8822 92.9103 79.8121 92.9103C86.774 92.9103 94.9605 92.3503 103.882 90.8103L108.22 94.3803C109.829 95.7803 109.829 97.7753 109.829 97.9153L109.724 115.485V115.52ZM60.6404 80.8704C60.6404 80.8704 61.7949 76.9855 66.133 75.8655C71.4857 74.4655 79.7071 74.5355 79.7421 74.5355C79.847 74.5355 89.6778 74.8155 94.2608 75.8655C97.9692 76.7055 99.1937 81.0804 99.2287 81.2204L101.433 87.6954C80.8966 90.9853 64.6636 88.7453 58.5413 87.5904L60.6404 80.8704ZM48.7805 88.3253C49.2353 87.6954 49.6201 87.5904 49.9 87.5554C51.1944 87.3804 52.9787 88.9203 52.9787 88.9203L50.4248 91.0903C49.6551 90.9153 49.0254 90.4253 48.7105 89.9003C48.3957 89.3403 48.4306 88.8153 48.7805 88.3253ZM57.4218 123.5H49.9V119.055H57.4567L57.3868 123.5H57.4218ZM61.0602 115.52V112.965C61.0602 112.65 61.1301 111.67 61.6549 111.11C61.7949 110.97 62.1447 110.585 63.1943 110.585H96.3249C96.8847 110.62 98.6689 111.005 98.6689 113.42V115.52H61.0602ZM102.202 123.5V119.02H109.724V123.5H102.202Z" stroke="#3EB489"/>
<path d="M64.9085 96.0253L58.2614 94.5903C56.4422 94.2403 54.7979 94.7303 53.7833 95.8853C52.8387 96.9703 52.5589 98.4753 53.0486 100.05L53.6084 101.8C54.1682 103.55 56.0224 104.775 58.0865 104.775H63.859C66.3429 104.775 68.512 102.745 68.512 100.4C68.512 98.2653 67.0076 96.4803 64.9085 96.0603V96.0253ZM63.859 101.24H58.0865C57.4567 101.24 57.0019 100.925 56.932 100.68L56.3722 98.9653C56.2673 98.6153 56.2673 98.3353 56.3722 98.1953C56.5121 98.0553 56.932 97.9153 57.5617 98.0203L64.2088 99.4553C64.6986 99.5603 65.0135 99.9102 65.0135 100.365C65.0135 100.61 64.5587 101.205 63.859 101.205V101.24Z" stroke="#3EB489"/>
<path d="M101.957 94.6253L95.3803 96.0253C93.2462 96.4453 91.7419 98.2303 91.7419 100.4C91.7419 102.71 93.911 104.775 96.3949 104.775H102.167C104.266 104.775 106.086 103.585 106.645 101.835L107.205 100.12C107.695 98.5453 107.415 97.0403 106.471 95.9203C105.456 94.7653 103.812 94.2753 101.922 94.6603L101.957 94.6253ZM103.917 99.0003L103.357 100.715C103.287 100.925 102.832 101.24 102.202 101.24H96.4299C95.7302 101.24 95.2754 100.645 95.2754 100.365C95.2754 99.9102 95.5902 99.5603 96.115 99.4553L102.657 98.0553C102.867 98.0553 103.007 98.0203 103.182 98.0203C103.567 98.0203 103.812 98.1253 103.917 98.2303C104.057 98.3703 104.057 98.6503 103.952 99.0003H103.917Z" stroke="#3EB489"/>
<circle cx="146" cy="99" r="16" stroke="#3EB489" stroke-width="4"/>
<path d="M145.648 108C145.488 108 145.344 107.944 145.216 107.832C145.104 107.72 145.048 107.576 145.048 107.4V95.472L141.592 98.136C141.448 98.248 141.296 98.288 141.136 98.256C140.992 98.224 140.864 98.136 140.752 97.992L139.552 96.432C139.456 96.288 139.416 96.136 139.432 95.976C139.464 95.816 139.552 95.688 139.696 95.592L145.168 91.368C145.264 91.304 145.352 91.264 145.432 91.248C145.528 91.216 145.632 91.2 145.744 91.2H148.288C148.448 91.2 148.584 91.256 148.696 91.368C148.808 91.48 148.864 91.624 148.864 91.8V107.4C148.864 107.576 148.808 107.72 148.696 107.832C148.584 107.944 148.448 108 148.288 108H145.648Z" fill="#3EB489"/>
</svg>
