<svg width="200" height="200" viewBox="0 0 200 200" fill="none" xmlns="http://www.w3.org/2000/svg">
<path d="M180.523 100.617C180.748 102.868 180.812 105.229 181.912 107.267C182.794 108.94 183.278 110.928 182.83 112.798C182.391 114.214 181.216 115.329 179.896 115.947C178.851 116.347 177.682 116.291 176.593 116.133C175.175 115.76 173.988 114.681 173.303 113.404C172.635 111.955 172.891 110.263 173.331 108.787C173.839 107.402 174.678 106.132 174.903 104.65C175.342 102.578 175.206 100.416 175.773 98.37C176.025 97.5178 176.642 96.5627 177.643 96.5874C178.164 96.5781 178.957 96.5065 179.487 97.1752C180.218 97.9242 180.362 99.3118 180.523 100.617Z" fill="black"/>
<path d="M23.7629 68L17 93.2429L49.8228 105.425V132.281H125.733L161.924 88.5859L169.297 86.2608L173.251 90.3904L178.155 84.4315L170.676 76.7829L154.177 83.7381L112.011 94.5711L105.121 87.6797H85.8166V78.9634H95.5687V70.3026H67.4037V78.9634H77.1558V87.6797H58.4822V80.888L23.7629 68ZM29.6665 79.4297L49.8228 86.9098V96.1882L27.406 87.8673L29.6665 79.4297ZM149.394 90.8992L121.664 123.62H58.4854V96.34H101.536L109.542 104.346L149.394 90.8992Z" fill="black"/>
</svg>
