<svg width="1110" height="162" viewBox="0 0 1110 162" fill="none" xmlns="http://www.w3.org/2000/svg">
<path d="M5.50003 159.72C3.8867 159.72 2.56669 159.207 1.54003 158.18C0.51336 157.153 2.72095e-05 155.907 2.72095e-05 154.44V11.22C2.72095e-05 9.60663 0.51336 8.28663 1.54003 7.25997C2.56669 6.2333 3.8867 5.71996 5.50003 5.71996H22.88C24.9334 5.71996 26.4734 6.30663 27.5 7.47996C28.5267 8.50663 29.1867 9.31329 29.48 9.89996L71.94 89.1L114.84 9.89996C115.133 9.31329 115.793 8.50663 116.82 7.47996C117.847 6.30663 119.387 5.71996 121.44 5.71996H138.6C140.213 5.71996 141.533 6.2333 142.56 7.25997C143.587 8.28663 144.1 9.60663 144.1 11.22V154.44C144.1 155.907 143.587 157.153 142.56 158.18C141.533 159.207 140.213 159.72 138.6 159.72H120.12C118.507 159.72 117.187 159.207 116.16 158.18C115.28 157.153 114.84 155.907 114.84 154.44V59.18L84.04 117.92C83.3067 119.24 82.3534 120.413 81.18 121.44C80.0067 122.32 78.4667 122.76 76.56 122.76H67.54C65.4867 122.76 63.8734 122.32 62.7 121.44C61.6734 120.413 60.7934 119.24 60.06 117.92L29.26 59.18V154.44C29.26 155.907 28.7467 157.153 27.72 158.18C26.6934 159.207 25.4467 159.72 23.98 159.72H5.50003ZM180.96 159.72C179.494 159.72 178.247 159.207 177.22 158.18C176.194 157.153 175.68 155.907 175.68 154.44V50.6C175.68 49.1333 176.194 47.8866 177.22 46.86C178.247 45.8333 179.494 45.32 180.96 45.32H199.22C200.834 45.32 202.08 45.8333 202.96 46.86C203.987 47.8866 204.5 49.1333 204.5 50.6V154.44C204.5 155.907 203.987 157.153 202.96 158.18C202.08 159.207 200.834 159.72 199.22 159.72H180.96ZM180.08 26.4C178.614 26.4 177.367 25.8866 176.34 24.86C175.314 23.8333 174.8 22.5866 174.8 21.12V5.27997C174.8 3.8133 175.314 2.56663 176.34 1.53996C177.367 0.513299 178.614 -3.17097e-05 180.08 -3.17097e-05H200.1C201.714 -3.17097e-05 203.034 0.513299 204.06 1.53996C205.087 2.56663 205.6 3.8133 205.6 5.27997V21.12C205.6 22.5866 205.087 23.8333 204.06 24.86C203.034 25.8866 201.714 26.4 200.1 26.4H180.08ZM238.968 159.72C237.501 159.72 236.255 159.207 235.228 158.18C234.201 157.153 233.688 155.907 233.688 154.44V50.6C233.688 49.1333 234.201 47.8866 235.228 46.86C236.255 45.8333 237.501 45.32 238.968 45.32H257.008C258.475 45.32 259.721 45.8333 260.748 46.86C261.775 47.8866 262.288 49.1333 262.288 50.6V59.62C266.101 54.9266 270.941 51.04 276.808 47.96C282.821 44.7333 290.228 43.12 299.028 43.12C307.975 43.12 315.748 45.1733 322.348 49.28C328.948 53.24 334.008 58.8866 337.528 66.22C341.195 73.5533 343.028 82.3533 343.028 92.62V154.44C343.028 155.907 342.515 157.153 341.488 158.18C340.461 159.207 339.215 159.72 337.748 159.72H318.388C316.921 159.72 315.675 159.207 314.648 158.18C313.621 157.153 313.108 155.907 313.108 154.44V93.94C313.108 85.4333 310.981 78.76 306.728 73.92C302.621 69.08 296.608 66.66 288.688 66.66C281.061 66.66 274.975 69.08 270.428 73.92C265.881 78.76 263.608 85.4333 263.608 93.94V154.44C263.608 155.907 263.095 157.153 262.068 158.18C261.041 159.207 259.795 159.72 258.328 159.72H238.968ZM421.384 159.72C412.584 159.72 405.178 158.18 399.164 155.1C393.151 152.02 388.678 147.473 385.744 141.46C382.811 135.3 381.344 127.673 381.344 118.58V68.64H363.964C362.498 68.64 361.251 68.1266 360.224 67.1C359.198 66.0733 358.684 64.7533 358.684 63.14V50.6C358.684 49.1333 359.198 47.8866 360.224 46.86C361.251 45.8333 362.498 45.32 363.964 45.32H381.344V8.79996C381.344 7.33329 381.784 6.08663 382.664 5.05997C383.691 4.0333 385.011 3.51996 386.624 3.51996H404.444C405.911 3.51996 407.158 4.0333 408.184 5.05997C409.211 6.08663 409.724 7.33329 409.724 8.79996V45.32H437.224C438.691 45.32 439.938 45.8333 440.964 46.86C441.991 47.8866 442.504 49.1333 442.504 50.6V63.14C442.504 64.7533 441.991 66.0733 440.964 67.1C439.938 68.1266 438.691 68.64 437.224 68.64H409.724V116.38C409.724 122.393 410.751 127.087 412.804 130.46C415.004 133.833 418.744 135.52 424.024 135.52H439.204C440.671 135.52 441.918 136.033 442.944 137.06C443.971 138.087 444.484 139.333 444.484 140.8V154.44C444.484 155.907 443.971 157.153 442.944 158.18C441.918 159.207 440.671 159.72 439.204 159.72H421.384ZM526.041 161.92C512.401 161.92 500.814 159.573 491.281 154.88C481.894 150.04 474.707 143.22 469.721 134.42C464.734 125.473 461.947 114.767 461.361 102.3C461.214 96.2866 461.141 89.8333 461.141 82.94C461.141 76.0466 461.214 69.4466 461.361 63.14C461.947 50.82 464.734 40.1866 469.721 31.24C474.854 22.2933 482.114 15.4733 491.501 10.78C501.034 5.93996 512.547 3.51996 526.041 3.51996C536.014 3.51996 544.961 4.83996 552.881 7.47996C560.801 10.12 567.547 13.7866 573.121 18.48C578.694 23.0266 583.021 28.38 586.101 34.54C589.181 40.7 590.794 47.3733 590.941 54.56C591.087 55.88 590.647 56.98 589.621 57.86C588.741 58.74 587.641 59.18 586.321 59.18H565.421C563.807 59.18 562.487 58.8133 561.461 58.08C560.434 57.2 559.701 55.8066 559.261 53.9C556.914 44.22 552.881 37.62 547.161 34.1C541.441 30.58 534.327 28.82 525.821 28.82C515.994 28.82 508.147 31.6066 502.281 37.18C496.414 42.6066 493.261 51.6266 492.821 64.24C492.381 76.2666 492.381 88.5866 492.821 101.2C493.261 113.813 496.414 122.907 502.281 128.48C508.147 133.907 515.994 136.62 525.821 136.62C534.327 136.62 541.441 134.86 547.161 131.34C553.027 127.673 557.061 121.073 559.261 111.54C559.701 109.487 560.434 108.093 561.461 107.36C562.487 106.627 563.807 106.26 565.421 106.26H586.321C587.641 106.26 588.741 106.7 589.621 107.58C590.647 108.46 591.087 109.56 590.941 110.88C590.794 118.067 589.181 124.74 586.101 130.9C583.021 137.06 578.694 142.487 573.121 147.18C567.547 151.727 560.801 155.32 552.881 157.96C544.961 160.6 536.014 161.92 526.041 161.92ZM619.891 159.72C618.425 159.72 617.178 159.207 616.151 158.18C615.125 157.153 614.611 155.907 614.611 154.44V8.79996C614.611 7.33329 615.125 6.08663 616.151 5.05997C617.178 4.0333 618.425 3.51996 619.891 3.51996H639.471C641.085 3.51996 642.331 4.0333 643.211 5.05997C644.238 6.08663 644.751 7.33329 644.751 8.79996V58.96C648.711 54.2666 653.551 50.4533 659.271 47.52C664.991 44.5866 672.031 43.12 680.391 43.12C689.338 43.12 697.111 45.1733 703.711 49.28C710.458 53.24 715.665 58.8866 719.331 66.22C722.998 73.5533 724.831 82.3533 724.831 92.62V154.44C724.831 155.907 724.318 157.153 723.291 158.18C722.265 159.207 721.018 159.72 719.551 159.72H699.751C698.285 159.72 697.038 159.207 696.011 158.18C694.985 157.153 694.471 155.907 694.471 154.44V93.94C694.471 85.4333 692.345 78.76 688.091 73.92C683.985 69.08 677.971 66.66 670.051 66.66C662.425 66.66 656.265 69.08 651.571 73.92C647.025 78.76 644.751 85.4333 644.751 93.94V154.44C644.751 155.907 644.238 157.153 643.211 158.18C642.331 159.207 641.085 159.72 639.471 159.72H619.891ZM802.031 161.92C785.751 161.92 772.844 157.227 763.311 147.84C753.777 138.453 748.644 125.107 747.911 107.8C747.764 106.333 747.691 104.5 747.691 102.3C747.691 99.9533 747.764 98.12 747.911 96.8C748.497 85.6533 750.991 76.12 755.391 68.2C759.937 60.1333 766.171 53.9733 774.091 49.72C782.011 45.32 791.324 43.12 802.031 43.12C813.911 43.12 823.884 45.6133 831.951 50.6C840.017 55.44 846.104 62.26 850.211 71.06C854.317 79.7133 856.371 89.76 856.371 101.2V105.82C856.371 107.287 855.857 108.533 854.831 109.56C853.804 110.587 852.484 111.1 850.871 111.1H777.831C777.831 111.1 777.831 111.32 777.831 111.76C777.831 112.2 777.831 112.567 777.831 112.86C777.977 117.993 778.931 122.76 780.691 127.16C782.597 131.413 785.311 134.86 788.831 137.5C792.497 140.14 796.824 141.46 801.811 141.46C805.917 141.46 809.364 140.873 812.151 139.7C814.937 138.38 817.211 136.913 818.971 135.3C820.731 133.687 821.977 132.367 822.711 131.34C824.031 129.58 825.057 128.553 825.791 128.26C826.671 127.82 827.917 127.6 829.531 127.6H848.451C849.917 127.6 851.091 128.04 851.971 128.92C852.997 129.8 853.437 130.9 853.291 132.22C853.144 134.567 851.897 137.427 849.551 140.8C847.351 144.173 844.124 147.473 839.871 150.7C835.617 153.927 830.264 156.64 823.811 158.84C817.504 160.893 810.244 161.92 802.031 161.92ZM777.831 92.62H826.451V91.96C826.451 86.24 825.497 81.2533 823.591 77C821.684 72.6 818.897 69.2266 815.231 66.88C811.564 64.3866 807.164 63.14 802.031 63.14C796.897 63.14 792.497 64.3866 788.831 66.88C785.164 69.2266 782.377 72.6 780.471 77C778.711 81.2533 777.831 86.24 777.831 91.96V92.62ZM929.223 161.92C918.663 161.92 909.35 159.94 901.283 155.98C893.363 152.02 887.13 146.3 882.583 138.82C878.183 131.193 875.763 122.027 875.323 111.32C875.177 109.12 875.103 106.26 875.103 102.74C875.103 99.0733 875.177 96.0666 875.323 93.72C875.763 83.0133 878.183 73.92 882.583 66.44C887.13 58.8133 893.363 53.02 901.283 49.06C909.35 45.1 918.663 43.12 929.223 43.12C938.61 43.12 946.603 44.44 953.203 47.08C959.803 49.5733 965.23 52.8733 969.483 56.98C973.737 60.94 976.89 65.12 978.943 69.52C981.143 73.7733 982.317 77.66 982.463 81.18C982.61 82.7933 982.097 84.1133 980.923 85.14C979.897 86.02 978.65 86.46 977.183 86.46H957.823C956.357 86.46 955.183 86.0933 954.303 85.36C953.57 84.6266 952.837 83.5266 952.103 82.06C949.903 76.1933 946.97 72.0866 943.303 69.74C939.783 67.2466 935.237 66 929.663 66C922.33 66 916.463 68.3466 912.063 73.04C907.81 77.5866 905.537 84.8466 905.243 94.82C904.95 100.393 904.95 105.527 905.243 110.22C905.537 120.34 907.81 127.673 912.063 132.22C916.463 136.767 922.33 139.04 929.663 139.04C935.383 139.04 940.003 137.867 943.523 135.52C947.043 133.027 949.903 128.847 952.103 122.98C952.837 121.513 953.57 120.413 954.303 119.68C955.183 118.947 956.357 118.58 957.823 118.58H977.183C978.65 118.58 979.897 119.093 980.923 120.12C982.097 121 982.61 122.247 982.463 123.86C982.317 126.5 981.583 129.507 980.263 132.88C979.09 136.107 977.11 139.48 974.323 143C971.683 146.373 968.31 149.527 964.203 152.46C960.097 155.247 955.11 157.52 949.243 159.28C943.523 161.04 936.85 161.92 929.223 161.92ZM1010.91 159.72C1009.44 159.72 1008.19 159.207 1007.17 158.18C1006.14 157.153 1005.63 155.907 1005.63 154.44V8.79996C1005.63 7.33329 1006.14 6.08663 1007.17 5.05997C1008.19 4.0333 1009.44 3.51996 1010.91 3.51996H1028.73C1030.34 3.51996 1031.59 4.0333 1032.47 5.05997C1033.49 6.08663 1034.01 7.33329 1034.01 8.79996V84.04L1070.97 49.06C1072.43 47.8866 1073.61 47.0066 1074.49 46.42C1075.51 45.6866 1077.05 45.32 1079.11 45.32H1099.57C1101.03 45.32 1102.21 45.76 1103.09 46.64C1103.97 47.52 1104.41 48.6933 1104.41 50.16C1104.41 50.7466 1104.26 51.4066 1103.97 52.14C1103.67 52.8733 1103.09 53.5333 1102.21 54.12L1056.89 96.58L1107.71 151.14C1109.17 152.607 1109.91 153.853 1109.91 154.88C1109.91 156.347 1109.39 157.52 1108.37 158.4C1107.49 159.28 1106.39 159.72 1105.07 159.72H1084.17C1081.97 159.72 1080.35 159.427 1079.33 158.84C1078.45 158.107 1077.35 157.153 1076.03 155.98L1034.01 111.76V154.44C1034.01 155.907 1033.49 157.153 1032.47 158.18C1031.59 159.207 1030.34 159.72 1028.73 159.72H1010.91Z" fill="#1A1A1A"/>
</svg>
