<svg xmlns="http://www.w3.org/2000/svg" width="32" height="32" viewBox="0 0 256 256">
  <defs>
    <clipPath id="clip0_favicon">
      <rect width="197" height="256" fill="white"/>
    </clipPath>
  </defs>
  <g clip-path="url(#clip0_favicon)" transform="translate(29.5, 0)">
    <path d="M150.051 37.3635L91.7217 191.687C91.5085 192.233 91.5885 192.846 91.8949 193.352C95.732 199.681 96.5714 207.702 93.4271 215.016C88.1644 227.247 73.8286 232.789 61.6644 227.154C50.2331 221.851 44.9038 207.928 49.8467 196.35C52.991 188.982 59.4261 184.039 66.7006 182.494C67.2602 182.374 67.7265 182.028 67.993 181.535L145.108 35.2318C146.507 32.6071 151.037 34.5789 150.051 37.3901V37.3635Z" fill="#1A1A1A"/>
    <path d="M12.6289 138.173C12.5933 125.205 17.9627 109.916 23.2451 97.7881C23.3778 97.8417 23.5069 97.8934 23.6328 97.9414L23.6504 97.9482L23.667 97.9551C26.7407 99.0935 30.2947 97.6074 31.4932 94.3936L31.4941 94.3945C35.9524 82.494 45.5859 68.0282 55.7305 58.2285C58.4817 60.0538 62.3993 59.3647 64.251 56.3613L64.4619 55.9922C69.5955 46.2511 78.0244 37.0819 87.1592 29.7168C95.781 22.7654 104.749 17.6481 111.701 15.1953C111.85 15.4417 112.013 15.7271 112.193 16.0605C112.664 16.9315 113.467 18.5623 114.31 19.71L114.315 19.7178L114.322 19.7266C116.199 22.2545 119.729 22.9782 122.46 21.2617L122.469 21.2559C133.451 14.3123 147.131 7.40437 159.238 4.2168C160.819 5.95767 162.669 8.93898 164.574 13.0469C166.714 17.6603 168.748 23.3045 170.46 29.293C173.919 41.3947 175.877 54.2616 175.054 62.4258V62.4297C174.626 66.7064 178.671 70.1051 182.844 68.8574L184.195 68.4561L183.057 103.502C182.901 108.123 187.777 111.241 191.912 109.115L191.913 109.117C192.107 109.018 192.303 108.913 192.502 108.807C190.048 126.323 181.979 146.707 172.61 162.952L172.599 162.974C170.356 166.918 173.058 171.869 177.624 172.064H177.631L177.639 172.065C179.503 172.138 181.434 171.918 182.867 171.784C183.138 171.759 183.394 171.738 183.637 171.719C173.418 193.129 153.103 216.214 129.191 232.096C104.225 248.678 76.2834 256.818 52.374 248.324C34.9856 240.377 22.1509 221.997 14.0332 200.871C6.40624 181.022 3.24287 159.503 4.15328 143.774L4.19723 143.794C8.17652 145.455 12.6289 142.561 12.6289 138.184V138.173Z" stroke="#1A1A1A" stroke-width="8" fill="none"/>
  </g>
</svg>
