<svg width="200" height="200" viewBox="0 0 200 200" fill="none" xmlns="http://www.w3.org/2000/svg">
<g clip-path="url(#clip0_176_60)">
<line x1="17" y1="21" x2="62" y2="21" stroke="#1A1A1A" stroke-width="8"/>
<line x1="21" y1="18" x2="21" y2="63" stroke="#1A1A1A" stroke-width="8"/>
<line x1="179" y1="17" x2="179" y2="62" stroke="#1A1A1A" stroke-width="8"/>
<line x1="182" y1="21" x2="137" y2="21" stroke="#1A1A1A" stroke-width="8"/>
<line x1="183" y1="179" x2="138" y2="179" stroke="#1A1A1A" stroke-width="8"/>
<line x1="179" y1="182" x2="179" y2="137" stroke="#1A1A1A" stroke-width="8"/>
<line x1="21" y1="183" x2="21" y2="138" stroke="#1A1A1A" stroke-width="8"/>
<line x1="18" y1="179" x2="63" y2="179" stroke="#1A1A1A" stroke-width="8"/>
</g>
<g clip-path="url(#clip1_176_60)">
<path d="M104.959 62.5439C106.438 62.5439 107.643 63.7398 107.643 65.2178C107.642 66.6956 106.438 67.8916 104.959 67.8916H75.5732C73.9484 67.8916 72.5863 67.8402 71.3809 67.9756C70.195 68.1088 69.2251 68.4184 68.4004 69.0996C67.5146 69.8313 66.7758 70.9755 66.1309 72.7734C65.4854 74.5728 64.9473 76.9878 64.4375 80.2197L64.4365 80.2246C64.4366 80.2242 64.4373 80.2243 64.4365 80.2295C64.436 80.2332 64.4343 80.2423 64.4326 80.252L62.2617 93.0664L132.548 92.9785H132.551C141.228 92.9785 146.949 100.913 146.949 109.16V126.087C146.949 129.02 145.143 131.529 142.582 132.58V139.453C142.582 145.557 137.645 150.5 131.572 150.5C125.499 150.5 120.563 145.557 120.563 139.453V133.108H72.1582V139.175C72.158 145.436 67.1566 150.5 61.0127 150.5C54.8688 150.5 49.8674 145.436 49.8672 139.175V132.58C47.306 131.529 45.5 129.02 45.5 126.087V109.16C45.5 102 50.0835 94.8434 56.7695 93.3516C56.9377 92.359 57.16 91.0501 57.4004 89.6309H50.3672C48.8881 89.6308 47.6836 88.434 47.6836 86.9561C47.6838 85.4783 48.8883 84.2823 50.3672 84.2822H58.3066C58.5268 82.9826 58.7251 81.8098 58.873 80.9365C58.9548 80.4537 59.0216 80.0626 59.0674 79.792C59.0903 79.6569 59.108 79.5518 59.1201 79.4805C59.1261 79.445 59.1307 79.4177 59.1338 79.3994C59.1353 79.3903 59.1359 79.3826 59.1367 79.3779C59.1371 79.3758 59.1375 79.3742 59.1377 79.373L59.1387 79.3721V79.3711C60.4208 71.2557 62.375 67.1307 64.9756 64.9824C67.698 62.7338 71.1733 62.5439 75.5732 62.5439H104.959ZM55.2344 139.175C55.2346 142.476 57.8228 145.152 61.0127 145.152C64.2026 145.152 66.7908 142.476 66.791 139.175V133.108H55.2344V139.175ZM125.931 139.453C125.931 142.598 128.457 145.152 131.572 145.152C134.688 145.152 137.214 142.598 137.214 139.453V133.108H125.931V139.453ZM59.332 98.418H59.3291C56.8322 98.418 54.7286 99.7452 53.2314 101.772C51.7312 103.804 50.8672 106.509 50.8672 109.16V126.087C50.8672 127.009 51.6189 127.761 52.5508 127.761H139.898C140.83 127.76 141.582 127.009 141.582 126.087V109.16C141.582 103.615 138.046 98.3266 132.552 98.3262L59.332 98.418ZM65.1074 106.021C69.1594 106.022 72.4307 109.355 72.4307 113.451C72.4306 117.547 69.1594 120.881 65.1074 120.881C61.0554 120.881 57.7832 117.547 57.7832 113.451C57.7832 109.355 61.0553 106.021 65.1074 106.021ZM127.342 106.021C131.394 106.021 134.666 109.355 134.666 113.451C134.666 117.547 131.394 120.881 127.342 120.881C123.29 120.881 120.018 117.547 120.018 113.451C120.018 109.355 123.29 106.022 127.342 106.021ZM132.255 49.5C143.986 49.5 153.5 58.9681 153.5 70.6523C153.5 82.3362 143.986 91.8047 132.255 91.8047C120.524 91.8046 111.01 82.3361 111.01 70.6523C111.01 58.9682 120.524 49.5001 132.255 49.5ZM132.255 54.8477C123.484 54.8478 116.378 61.9261 116.378 70.6523C116.378 79.3786 123.484 86.4559 132.255 86.4561C141.026 86.4561 148.133 79.3786 148.133 70.6523C148.133 61.926 141.026 54.8477 132.255 54.8477ZM139.268 63.1611C140.358 62.1636 142.055 62.2349 143.058 63.3203C144.061 64.4073 143.99 66.1008 142.898 67.0996L130.449 78.4951C129.391 79.4639 127.753 79.4295 126.736 78.417L121.304 73.0088C120.256 71.9651 120.256 70.2703 121.304 69.2266C122.351 68.184 124.05 68.184 125.098 69.2266L128.711 72.8232L139.268 63.1611Z" fill="#1A1A1A" stroke="#1A1A1A"/>
</g>
<g clip-path="url(#clip2_176_60)">
<path d="M95.041 62.5439C93.5619 62.5439 92.3574 63.7398 92.3574 65.2178C92.3576 66.6956 93.562 67.8916 95.041 67.8916H124.427C126.052 67.8916 127.414 67.8402 128.619 67.9756C129.805 68.1088 130.775 68.4184 131.6 69.0996C132.485 69.8313 133.224 70.9755 133.869 72.7734C134.515 74.5728 135.053 76.9878 135.562 80.2197L135.563 80.2246C135.563 80.2242 135.563 80.2243 135.563 80.2295C135.564 80.2332 135.566 80.2423 135.567 80.252L137.738 93.0664L67.4521 92.9785H67.4492C58.7722 92.9785 53.0508 100.913 53.0508 109.16V126.087C53.0508 129.02 54.8569 131.529 57.418 132.58V139.453C57.418 145.557 62.3546 150.5 68.4277 150.5C74.5007 150.5 79.4365 145.557 79.4365 139.453V133.108H127.842V139.175C127.842 145.436 132.843 150.5 138.987 150.5C145.131 150.5 150.133 145.436 150.133 139.175V132.58C152.694 131.529 154.5 129.02 154.5 126.087V109.16C154.5 102 149.917 94.8434 143.23 93.3516C143.062 92.359 142.84 91.0501 142.6 89.6309H149.633C151.112 89.6308 152.316 88.434 152.316 86.9561C152.316 85.4783 151.112 84.2823 149.633 84.2822H141.693C141.473 82.9826 141.275 81.8098 141.127 80.9365C141.045 80.4537 140.978 80.0626 140.933 79.792C140.91 79.6569 140.892 79.5518 140.88 79.4805C140.874 79.445 140.869 79.4177 140.866 79.3994C140.865 79.3903 140.864 79.3826 140.863 79.3779C140.863 79.3758 140.862 79.3742 140.862 79.373L140.861 79.3721V79.3711C139.579 71.2557 137.625 67.1307 135.024 64.9824C132.302 62.7338 128.827 62.5439 124.427 62.5439H95.041ZM144.766 139.175C144.765 142.476 142.177 145.152 138.987 145.152C135.797 145.152 133.209 142.476 133.209 139.175V133.108H144.766V139.175ZM74.0693 139.453C74.0693 142.598 71.5434 145.152 68.4277 145.152C65.3119 145.152 62.7861 142.598 62.7861 139.453V133.108H74.0693V139.453ZM140.668 98.418H140.671C143.168 98.418 145.271 99.7452 146.769 101.772C148.269 103.804 149.133 106.509 149.133 109.16V126.087C149.133 127.009 148.381 127.761 147.449 127.761H60.1016C59.1696 127.76 58.418 127.009 58.418 126.087V109.16C58.418 103.615 61.9541 98.3266 67.4482 98.3262L140.668 98.418ZM134.893 106.021C130.841 106.022 127.569 109.355 127.569 113.451C127.569 117.547 130.841 120.881 134.893 120.881C138.945 120.881 142.217 117.547 142.217 113.451C142.217 109.355 138.945 106.021 134.893 106.021ZM72.6582 106.021C68.6061 106.021 65.334 109.355 65.334 113.451C65.334 117.547 68.6061 120.881 72.6582 120.881C76.7102 120.881 79.9824 117.547 79.9824 113.451C79.9824 109.355 76.7103 106.022 72.6582 106.021ZM67.7451 49.5C56.0142 49.5 46.5 58.9681 46.5 70.6523C46.5001 82.3362 56.0142 91.8047 67.7451 91.8047C79.4759 91.8046 88.9901 82.3361 88.9902 70.6523C88.9902 58.9682 79.476 49.5001 67.7451 49.5ZM67.7451 54.8477C76.516 54.8478 83.6221 61.9261 83.6221 70.6523C83.622 79.3786 76.516 86.4559 67.7451 86.4561C58.9742 86.4561 51.8673 79.3786 51.8672 70.6523C51.8672 61.926 58.9741 54.8477 67.7451 54.8477ZM60.7324 63.1611C59.6421 62.1636 57.9447 62.2349 56.9424 63.3203C55.9386 64.4073 56.0103 66.1008 57.1016 67.0996L69.5508 78.4951C70.6094 79.4639 72.2467 79.4295 73.2637 78.417L78.6963 73.0088C79.7444 71.9651 79.7444 70.2703 78.6963 69.2266C77.649 68.184 75.9496 68.184 74.9023 69.2266L71.2891 72.8232L60.7324 63.1611Z" fill="#1A1A1A" stroke="#1A1A1A"/>
</g>
<defs>
<clipPath id="clip0_176_60">
<rect x="17" y="17" width="166" height="166" rx="5" fill="white"/>
</clipPath>
<clipPath id="clip1_176_60">
<rect width="58" height="108" fill="white" transform="translate(42 46)"/>
</clipPath>
<clipPath id="clip2_176_60">
<rect width="58" height="108" fill="white" transform="translate(100 46)"/>
</clipPath>
</defs>
</svg>
