<svg width="200" height="200" viewBox="0 0 200 200" fill="none" xmlns="http://www.w3.org/2000/svg">
<path d="M100 158.811C132.533 158.811 158.905 132.438 158.905 99.9053C158.905 67.3728 132.533 41 100 41C67.4676 41 41.0948 67.3728 41.0948 99.9053C41.0948 132.438 67.4676 158.811 100 158.811Z" stroke="black" stroke-width="5"/>
<path d="M105.364 61.9082C105.364 58.9456 102.962 56.5439 99.9995 56.5439C97.0371 56.5439 94.6356 58.9456 94.6356 61.9082V120.356C94.6356 123.319 97.0371 125.72 99.9995 125.72C102.962 125.72 105.364 123.319 105.364 120.356V61.9082Z" fill="black"/>
<path d="M100 145.052C102.963 145.052 105.364 142.651 105.364 139.688C105.364 136.726 102.963 134.324 100 134.324C97.0375 134.324 94.6359 136.726 94.6359 139.688C94.6359 142.651 97.0375 145.052 100 145.052Z" fill="black"/>
<path d="M153.033 46.873C159.998 53.8374 165.522 62.1052 169.291 71.2045C173.06 80.3038 175 90.0563 175 99.9053C175 109.754 173.06 119.507 169.291 128.606C165.522 137.705 159.998 145.973 153.033 152.938" stroke="black" stroke-width="10"/>
<path d="M46.9678 152.939C40.0032 145.974 34.4785 137.706 30.7093 128.607C26.94 119.507 25 109.755 25 99.9053C25 90.056 26.94 80.3032 30.7093 71.2037C34.4785 62.1042 40.0032 53.8363 46.9678 46.8719" stroke="black" stroke-width="10"/>
</svg>
