<svg width="200" height="200" viewBox="0 0 200 200" fill="none" xmlns="http://www.w3.org/2000/svg">
<path d="M172.167 80.7501L100 16.6667L27.8333 80.7501C26.9444 81.531 26.232 82.4923 25.7435 83.5699C25.2549 84.6475 25.0015 85.8169 25 87.0001V175C25 177.21 25.878 179.33 27.4408 180.893C29.0036 182.455 31.1232 183.333 33.3333 183.333H166.667C168.877 183.333 170.996 182.455 172.559 180.893C174.122 179.33 175 177.21 175 175V87.0001C174.999 85.8169 174.745 84.6475 174.257 83.5699C173.768 82.4923 173.056 81.531 172.167 80.7501ZM83.3333 175V125H116.667V175H83.3333ZM166.667 175H125V125C125 122.79 124.122 120.67 122.559 119.108C120.996 117.545 118.877 116.667 116.667 116.667H83.3333C81.1232 116.667 79.0036 117.545 77.4408 119.108C75.878 120.67 75 122.79 75 125V175H33.3333V87.0001L100 27.8334L166.667 87.0001V175Z" fill="#1A1A1A"/>
</svg>
