<svg width="200" height="200" viewBox="0 0 200 200" fill="none" xmlns="http://www.w3.org/2000/svg">
<path d="M121.013 63.5329C120.091 62.2504 118.849 61.431 117.394 61.2885C114.2 60.9679 111.503 63.4973 111.503 63.4973L109.41 57.3342C109.339 57.0492 107.6 50.7792 101.745 49.4255C96.7419 48.2855 86.7352 48.0005 86.3094 48.0005C85.99 48.0005 77.4382 47.9293 71.5478 49.4611C65.125 51.1355 63.4928 56.7998 63.4573 56.9779L61.5056 63.5329C61.5056 63.5329 58.6314 60.861 55.5797 61.2529C54.1603 61.431 52.9183 62.1791 51.9602 63.4973C50.7893 65.136 50.6828 67.2022 51.6764 68.9834C52.1732 69.8741 52.9183 70.5866 53.8054 71.1209C53.1312 72.154 52.4215 73.7215 52.4215 75.859V101.081C52.4215 103.219 54.1248 105 56.1474 105H63.5992C65.6218 105 67.2896 103.219 67.2896 101.081V96.8419H105.436V101.117C105.436 103.254 107.139 105 109.197 105H116.613C118.636 105 120.304 103.254 120.304 101.117V75.4671C120.304 75.4671 120.375 73.294 119.133 71.1566C120.02 70.6222 120.765 69.9097 121.297 68.9834C122.326 67.2022 122.22 65.136 121.013 63.4973V63.5329ZM117.004 64.851C117.287 64.851 117.678 64.9935 118.139 65.6347C118.494 66.1335 118.529 66.7035 118.21 67.2378C117.926 67.7366 117.323 68.1997 116.613 68.4135L113.952 66.1691C113.952 66.1691 115.833 64.6729 117.039 64.8154L117.004 64.851ZM116.649 93.3151H108.984V91.1776C108.984 86.4039 105.258 84.8721 103.165 84.7296H69.4542C67.2896 84.7296 66.0122 85.6202 65.3025 86.3683C63.6347 88.1495 63.7411 90.6076 63.7411 90.7858V93.2795H56.0055V75.859C56.0055 73.6859 57.2475 72.4747 57.2475 72.4747L62.4637 68.0216C65.6218 68.6985 74.2091 70.3016 86.3094 70.3016C93.3708 70.3016 101.674 69.7316 110.723 68.1641L115.123 71.7978C116.755 73.2228 116.755 75.2534 116.755 75.3959L116.649 93.2795V93.3151ZM66.8638 58.0467C66.8638 58.0467 68.0348 54.0923 72.4349 52.9523C77.864 51.5274 86.2029 51.5986 86.2384 51.5986C86.3449 51.5986 96.316 51.8836 100.965 52.9523C104.726 53.8073 105.968 58.2604 106.003 58.4029L108.239 64.9935C87.4094 68.3422 70.9445 66.0622 64.7347 64.8866L66.8638 58.0467ZM54.8345 65.6347C55.2958 64.9935 55.6861 64.8866 55.97 64.851C57.2829 64.6729 59.0927 66.2403 59.0927 66.2403L56.5023 68.4491C55.7216 68.271 55.0829 67.7722 54.7635 67.2378C54.4442 66.6678 54.4797 66.1335 54.8345 65.6347ZM63.5992 101.438H55.97V96.9132H63.6347L63.5637 101.438H63.5992ZM67.2896 93.3151V90.7145C67.2896 90.3939 67.3606 89.3964 67.8929 88.8264C68.0348 88.6839 68.3896 88.292 69.4542 88.292H103.058C103.626 88.3277 105.436 88.7195 105.436 91.1776V93.3151H67.2896ZM109.02 101.438V96.8776H116.649V101.438H109.02Z" fill="#1A1A1A"/>
<path d="M71.1929 73.4722L64.4508 72.0115C62.6056 71.6553 60.9379 72.1541 59.9088 73.3297C58.9507 74.434 58.6668 75.9659 59.1636 77.569L59.7314 79.3502C60.2991 81.1315 62.1798 82.3783 64.2734 82.3783H70.1284C72.6478 82.3783 74.8478 80.3121 74.8478 77.9253C74.8478 75.7521 73.322 73.9353 71.1929 73.5078V73.4722ZM70.1284 78.7802H64.2734C63.6347 78.7802 63.1734 78.4596 63.1024 78.2102L62.5347 76.4646C62.4282 76.1084 62.4282 75.8234 62.5347 75.6809C62.6766 75.5384 63.1024 75.3959 63.7411 75.5028L70.4832 76.9634C70.98 77.0703 71.2994 77.4265 71.2994 77.8896C71.2994 78.139 70.8381 78.7446 70.1284 78.7446V78.7802Z" fill="#1A1A1A"/>
<path d="M108.771 72.0472L102.1 73.4722C99.9355 73.8997 98.4096 75.7165 98.4096 77.9253C98.4096 80.2765 100.61 82.3783 103.129 82.3783H108.984C111.113 82.3783 112.958 81.1671 113.526 79.3859L114.094 77.6402C114.591 76.0371 114.307 74.5053 113.349 73.3653C112.32 72.1897 110.652 71.6909 108.736 72.0828L108.771 72.0472ZM110.758 76.5003L110.191 78.2459C110.12 78.4596 109.658 78.7802 109.02 78.7802H103.165C102.455 78.7802 101.994 78.1746 101.994 77.8896C101.994 77.4265 102.313 77.0703 102.845 76.9634L109.481 75.5384C109.694 75.5384 109.836 75.5028 110.013 75.5028C110.403 75.5028 110.652 75.6096 110.758 75.7165C110.9 75.859 110.9 76.144 110.794 76.5003H110.758Z" fill="#1A1A1A"/>
<path d="M121.013 63.5329C120.091 62.2504 118.849 61.431 117.394 61.2885C114.2 60.9679 111.503 63.4973 111.503 63.4973L109.41 57.3342C109.339 57.0492 107.6 50.7792 101.745 49.4255C96.7419 48.2855 86.7352 48.0005 86.3094 48.0005C85.99 48.0005 77.4382 47.9293 71.5478 49.4611C65.125 51.1355 63.4928 56.7998 63.4573 56.9779L61.5056 63.5329C61.5056 63.5329 58.6314 60.861 55.5797 61.2529C54.1603 61.431 52.9183 62.1791 51.9602 63.4973C50.7893 65.136 50.6828 67.2022 51.6764 68.9834C52.1732 69.8741 52.9183 70.5866 53.8054 71.1209C53.1312 72.154 52.4215 73.7215 52.4215 75.859V101.081C52.4215 103.219 54.1248 105 56.1474 105H63.5992C65.6218 105 67.2896 103.219 67.2896 101.081V96.8419H105.436V101.117C105.436 103.254 107.139 105 109.197 105H116.613C118.636 105 120.304 103.254 120.304 101.117V75.4671C120.304 75.4671 120.375 73.294 119.133 71.1566C120.02 70.6222 120.765 69.9097 121.297 68.9834C122.326 67.2022 122.22 65.136 121.013 63.4973V63.5329ZM117.004 64.851C117.287 64.851 117.678 64.9935 118.139 65.6347C118.494 66.1335 118.529 66.7035 118.21 67.2378C117.926 67.7366 117.323 68.1997 116.613 68.4135L113.952 66.1691C113.952 66.1691 115.833 64.6729 117.039 64.8154L117.004 64.851ZM116.649 93.3151H108.984V91.1776C108.984 86.4039 105.258 84.8721 103.165 84.7296H69.4542C67.2896 84.7296 66.0122 85.6202 65.3025 86.3683C63.6347 88.1495 63.7411 90.6076 63.7411 90.7858V93.2795H56.0055V75.859C56.0055 73.6859 57.2475 72.4747 57.2475 72.4747L62.4637 68.0216C65.6218 68.6985 74.2091 70.3016 86.3094 70.3016C93.3708 70.3016 101.674 69.7316 110.723 68.1641L115.123 71.7978C116.755 73.2228 116.755 75.2534 116.755 75.3959L116.649 93.2795V93.3151ZM66.8638 58.0467C66.8638 58.0467 68.0348 54.0923 72.4349 52.9523C77.864 51.5274 86.2029 51.5986 86.2384 51.5986C86.3449 51.5986 96.316 51.8836 100.965 52.9523C104.726 53.8073 105.968 58.2604 106.003 58.4029L108.239 64.9935C87.4094 68.3422 70.9445 66.0622 64.7347 64.8866L66.8638 58.0467ZM54.8345 65.6347C55.2958 64.9935 55.6861 64.8866 55.97 64.851C57.2829 64.6729 59.0927 66.2403 59.0927 66.2403L56.5023 68.4491C55.7216 68.271 55.0829 67.7722 54.7635 67.2378C54.4442 66.6678 54.4797 66.1335 54.8345 65.6347ZM63.5992 101.438H55.97V96.9132H63.6347L63.5637 101.438H63.5992ZM67.2896 93.3151V90.7145C67.2896 90.3939 67.3606 89.3964 67.8929 88.8264C68.0348 88.6839 68.3896 88.292 69.4542 88.292H103.058C103.626 88.3277 105.436 88.7195 105.436 91.1776V93.3151H67.2896ZM109.02 101.438V96.8776H116.649V101.438H109.02Z" stroke="#1A1A1A"/>
<path d="M71.1929 73.4722L64.4508 72.0115C62.6056 71.6553 60.9379 72.1541 59.9088 73.3297C58.9507 74.434 58.6668 75.9659 59.1636 77.569L59.7314 79.3502C60.2991 81.1315 62.1798 82.3783 64.2734 82.3783H70.1284C72.6478 82.3783 74.8478 80.3121 74.8478 77.9253C74.8478 75.7521 73.322 73.9353 71.1929 73.5078V73.4722ZM70.1284 78.7802H64.2734C63.6347 78.7802 63.1734 78.4596 63.1024 78.2102L62.5347 76.4646C62.4282 76.1084 62.4282 75.8234 62.5347 75.6809C62.6766 75.5384 63.1024 75.3959 63.7411 75.5028L70.4832 76.9634C70.98 77.0703 71.2994 77.4265 71.2994 77.8896C71.2994 78.139 70.8381 78.7446 70.1284 78.7446V78.7802Z" stroke="#1A1A1A"/>
<path d="M108.771 72.0472L102.1 73.4722C99.9355 73.8997 98.4096 75.7165 98.4096 77.9253C98.4096 80.2765 100.61 82.3783 103.129 82.3783H108.984C111.113 82.3783 112.958 81.1671 113.526 79.3859L114.094 77.6402C114.591 76.0371 114.307 74.5053 113.349 73.3653C112.32 72.1897 110.652 71.6909 108.736 72.0828L108.771 72.0472ZM110.758 76.5003L110.191 78.2459C110.12 78.4596 109.658 78.7802 109.02 78.7802H103.165C102.455 78.7802 101.994 78.1746 101.994 77.8896C101.994 77.4265 102.313 77.0703 102.845 76.9634L109.481 75.5384C109.694 75.5384 109.836 75.5028 110.013 75.5028C110.403 75.5028 110.652 75.6096 110.758 75.7165C110.9 75.859 110.9 76.144 110.794 76.5003H110.758Z" stroke="#1A1A1A"/>
<path d="M172.602 162.524L135.046 115.57C134.548 114.904 133.8 114.571 133.135 114.072C139.699 105.58 144.02 95.3399 145.266 83.9344C148.922 50.8002 125.076 20.9961 91.9236 17.333C89.7633 17.0833 87.5199 17 85.2765 17C54.9494 17 28.7766 39.811 25.37 70.6974C21.7141 103.832 45.5604 133.636 78.7126 137.299C80.956 137.549 83.1993 137.632 85.4427 137.632C94.9148 137.632 103.971 135.384 112.031 131.388C112.363 132.054 112.529 132.72 113.028 133.303L150.584 180.257C152.412 182.504 154.987 183.67 157.646 183.67C159.64 183.67 161.635 183.004 163.296 181.672L171.19 175.345C175.095 172.181 175.76 166.437 172.602 162.524ZM85.4427 129.307C83.5317 129.307 81.5376 129.223 79.6266 128.974C65.8339 127.475 53.4538 120.648 44.7295 109.826C36.0884 99.003 32.1002 85.4329 33.5957 71.6131C36.5869 45.2223 58.7714 25.3252 85.2765 25.3252C87.1876 25.3252 89.1817 25.4084 91.0927 25.6582C104.885 27.1567 117.265 33.9834 125.99 44.8061C134.714 55.6288 138.619 69.1988 137.124 83.0186C135.711 96.0059 129.563 107.328 120.589 115.57L118.013 117.651C109.04 124.894 97.7398 129.307 85.4427 129.307ZM166.038 168.768L158.145 175.095C158.062 175.178 157.896 175.262 157.646 175.262C157.48 175.262 157.231 175.178 157.065 175.012L119.509 128.058C119.26 127.808 119.343 127.225 119.592 126.976L120.423 126.31C122.334 124.978 124.162 123.479 125.907 121.897L127.568 120.565C127.651 120.482 127.818 120.399 128.067 120.399C128.233 120.399 128.482 120.482 128.649 120.648L166.204 167.602C166.371 168.019 166.287 168.601 166.038 168.768Z" fill="#1A1A1A"/>
</svg>
