<svg width="1575" height="446" viewBox="0 0 1575 446" fill="none" xmlns="http://www.w3.org/2000/svg">
<g clip-path="url(#clip0_35_30)">
<path d="M250.051 132.363L191.722 286.687C191.508 287.233 191.588 287.846 191.895 288.352C195.732 294.681 196.571 302.702 193.427 310.016C188.164 322.247 173.829 327.789 161.664 322.154C150.233 316.851 144.904 302.928 149.847 291.35C152.991 283.982 159.426 279.039 166.701 277.494C167.26 277.374 167.726 277.028 167.993 276.535L245.108 130.232C246.507 127.607 251.037 129.579 250.051 132.39V132.363Z" fill="white"/>
<path d="M112.629 233.173C112.593 220.205 117.963 204.916 123.245 192.788C123.378 192.842 123.507 192.893 123.633 192.941L123.65 192.948L123.667 192.955C126.741 194.094 130.295 192.607 131.493 189.394L131.494 189.395C135.952 177.494 145.586 163.028 155.73 153.228C158.482 155.054 162.399 154.365 164.251 151.361L164.462 150.992C169.595 141.251 178.024 132.082 187.159 124.717C195.781 117.765 204.749 112.648 211.701 110.195C211.85 110.442 212.013 110.727 212.193 111.06C212.664 111.931 213.467 113.562 214.31 114.71L214.315 114.718L214.322 114.727C216.199 117.254 219.729 117.978 222.46 116.262L222.469 116.256C233.451 109.312 247.131 102.404 259.238 99.2168C260.819 100.958 262.669 103.939 264.574 108.047C266.714 112.66 268.748 118.304 270.46 124.293C273.919 136.395 275.877 149.262 275.054 157.426V157.43C274.626 161.706 278.671 165.105 282.844 163.857L284.195 163.456L283.057 198.502C282.901 203.123 287.777 206.241 291.912 204.115L291.913 204.117C292.107 204.018 292.303 203.913 292.502 203.807C290.048 221.323 281.979 241.707 272.61 257.952L272.599 257.974C270.356 261.918 273.058 266.869 277.624 267.064H277.631L277.639 267.065C279.503 267.138 281.434 266.918 282.867 266.784C283.138 266.759 283.394 266.738 283.637 266.719C273.418 288.129 253.103 311.214 229.191 327.096C204.225 343.678 176.283 351.818 152.374 343.324C134.986 335.377 122.151 316.997 114.033 295.871C106.406 276.022 103.243 254.503 104.153 238.774L104.197 238.794C108.177 240.455 112.629 237.561 112.629 233.184V233.173Z" stroke="white" stroke-width="8"/>
</g>
<path d="M367.66 299C366.047 299 364.727 298.487 363.7 297.46C362.673 296.433 362.16 295.187 362.16 293.72V150.5C362.16 148.887 362.673 147.567 363.7 146.54C364.727 145.513 366.047 145 367.66 145H385.04C387.093 145 388.633 145.587 389.66 146.76C390.687 147.787 391.347 148.593 391.64 149.18L434.1 228.38L477 149.18C477.293 148.593 477.953 147.787 478.98 146.76C480.007 145.587 481.547 145 483.6 145H500.76C502.373 145 503.693 145.513 504.72 146.54C505.747 147.567 506.26 148.887 506.26 150.5V293.72C506.26 295.187 505.747 296.433 504.72 297.46C503.693 298.487 502.373 299 500.76 299H482.28C480.667 299 479.347 298.487 478.32 297.46C477.44 296.433 477 295.187 477 293.72V198.46L446.2 257.2C445.467 258.52 444.513 259.693 443.34 260.72C442.167 261.6 440.627 262.04 438.72 262.04H429.7C427.647 262.04 426.033 261.6 424.86 260.72C423.833 259.693 422.953 258.52 422.22 257.2L391.42 198.46V293.72C391.42 295.187 390.907 296.433 389.88 297.46C388.853 298.487 387.607 299 386.14 299H367.66ZM543.12 299C541.654 299 540.407 298.487 539.38 297.46C538.354 296.433 537.84 295.187 537.84 293.72V189.88C537.84 188.413 538.354 187.167 539.38 186.14C540.407 185.113 541.654 184.6 543.12 184.6H561.38C562.994 184.6 564.24 185.113 565.12 186.14C566.147 187.167 566.66 188.413 566.66 189.88V293.72C566.66 295.187 566.147 296.433 565.12 297.46C564.24 298.487 562.994 299 561.38 299H543.12ZM542.24 165.68C540.627 165.68 539.307 165.24 538.28 164.36C537.4 163.333 536.96 162.013 536.96 160.4V144.56C536.96 143.093 537.4 141.847 538.28 140.82C539.307 139.793 540.627 139.28 542.24 139.28H562.26C563.874 139.28 565.194 139.793 566.22 140.82C567.247 141.847 567.76 143.093 567.76 144.56V160.4C567.76 162.013 567.247 163.333 566.22 164.36C565.194 165.24 563.874 165.68 562.26 165.68H542.24ZM601.128 299C599.661 299 598.415 298.487 597.388 297.46C596.361 296.433 595.848 295.187 595.848 293.72V189.88C595.848 188.413 596.361 187.167 597.388 186.14C598.415 185.113 599.661 184.6 601.128 184.6H619.168C620.635 184.6 621.881 185.113 622.908 186.14C623.935 187.167 624.448 188.413 624.448 189.88V198.9C628.261 194.207 633.101 190.32 638.968 187.24C644.981 184.013 652.388 182.4 661.188 182.4C670.135 182.4 677.908 184.453 684.508 188.56C691.108 192.52 696.168 198.167 699.688 205.5C703.355 212.833 705.188 221.633 705.188 231.9V293.72C705.188 295.187 704.675 296.433 703.648 297.46C702.621 298.487 701.375 299 699.908 299H680.548C679.081 299 677.835 298.487 676.808 297.46C675.781 296.433 675.268 295.187 675.268 293.72V233.22C675.268 224.713 673.141 218.04 668.888 213.2C664.781 208.36 658.768 205.94 650.848 205.94C643.221 205.94 637.135 208.36 632.588 213.2C628.041 218.04 625.768 224.713 625.768 233.22V293.72C625.768 295.187 625.255 296.433 624.228 297.46C623.201 298.487 621.955 299 620.488 299H601.128ZM783.544 299C774.744 299 767.338 297.46 761.324 294.38C755.311 291.3 750.838 286.753 747.904 280.74C744.971 274.58 743.504 266.953 743.504 257.86V207.92H726.124C724.658 207.92 723.411 207.407 722.384 206.38C721.358 205.353 720.844 204.107 720.844 202.64V189.88C720.844 188.413 721.358 187.167 722.384 186.14C723.411 185.113 724.658 184.6 726.124 184.6H743.504V148.08C743.504 146.613 743.944 145.367 744.824 144.34C745.851 143.313 747.171 142.8 748.784 142.8H766.604C768.071 142.8 769.318 143.313 770.344 144.34C771.371 145.367 771.884 146.613 771.884 148.08V184.6H799.384C800.851 184.6 802.098 185.113 803.124 186.14C804.151 187.167 804.664 188.413 804.664 189.88V202.64C804.664 204.107 804.151 205.353 803.124 206.38C802.098 207.407 800.851 207.92 799.384 207.92H771.884V255.66C771.884 261.673 772.911 266.367 774.964 269.74C777.164 273.113 780.904 274.8 786.184 274.8H801.364C802.831 274.8 804.078 275.313 805.104 276.34C806.131 277.367 806.644 278.613 806.644 280.08V293.72C806.644 295.187 806.131 296.433 805.104 297.46C804.078 298.487 802.831 299 801.364 299H783.544ZM888.201 301.2C874.561 301.2 862.974 298.853 853.441 294.16C844.054 289.32 836.867 282.5 831.881 273.7C826.894 264.753 824.107 254.047 823.521 241.58C823.374 235.567 823.301 229.113 823.301 222.22C823.301 215.327 823.374 208.727 823.521 202.42C824.107 190.1 826.894 179.467 831.881 170.52C837.014 161.573 844.274 154.753 853.661 150.06C863.194 145.22 874.707 142.8 888.201 142.8C898.174 142.8 907.121 144.12 915.041 146.76C922.961 149.4 929.707 153.067 935.281 157.76C940.854 162.307 945.181 167.66 948.261 173.82C951.341 179.98 952.954 186.653 953.101 193.84C953.247 195.16 952.807 196.26 951.781 197.14C950.901 198.02 949.801 198.46 948.481 198.46H927.581C925.967 198.46 924.647 198.093 923.621 197.36C922.594 196.48 921.861 195.087 921.421 193.18C919.074 183.5 915.041 176.9 909.321 173.38C903.601 169.86 896.487 168.1 887.981 168.1C878.154 168.1 870.307 170.887 864.441 176.46C858.574 181.887 855.421 190.907 854.981 203.52C854.541 215.547 854.541 227.867 854.981 240.48C855.421 253.093 858.574 262.187 864.441 267.76C870.307 273.187 878.154 275.9 887.981 275.9C896.487 275.9 903.601 274.14 909.321 270.62C915.041 266.953 919.074 260.353 921.421 250.82C921.861 248.767 922.594 247.373 923.621 246.64C924.647 245.907 925.967 245.54 927.581 245.54H948.481C949.801 245.54 950.901 245.98 951.781 246.86C952.807 247.74 953.247 248.84 953.101 250.16C952.954 257.347 951.341 264.02 948.261 270.18C945.181 276.34 940.854 281.767 935.281 286.46C929.707 291.007 922.961 294.6 915.041 297.24C907.121 299.88 898.174 301.2 888.201 301.2ZM982.051 299C980.585 299 979.338 298.487 978.311 297.46C977.285 296.433 976.771 295.187 976.771 293.72V148.08C976.771 146.613 977.285 145.367 978.311 144.34C979.338 143.313 980.585 142.8 982.051 142.8H1001.63C1003.24 142.8 1004.49 143.313 1005.37 144.34C1006.4 145.367 1006.91 146.613 1006.91 148.08V198.24C1010.87 193.547 1015.71 189.733 1021.43 186.8C1027.15 183.867 1034.19 182.4 1042.55 182.4C1051.5 182.4 1059.27 184.453 1065.87 188.56C1072.62 192.52 1077.82 198.167 1081.49 205.5C1085.16 212.833 1086.99 221.633 1086.99 231.9V293.72C1086.99 295.187 1086.48 296.433 1085.45 297.46C1084.42 298.487 1083.18 299 1081.71 299H1061.91C1060.44 299 1059.2 298.487 1058.17 297.46C1057.14 296.433 1056.63 295.187 1056.63 293.72V233.22C1056.63 224.713 1054.5 218.04 1050.25 213.2C1046.14 208.36 1040.13 205.94 1032.21 205.94C1024.58 205.94 1018.42 208.36 1013.73 213.2C1009.18 218.04 1006.91 224.713 1006.91 233.22V293.72C1006.91 295.187 1006.4 296.433 1005.37 297.46C1004.49 298.487 1003.24 299 1001.63 299H982.051ZM1164.19 301.2C1147.91 301.2 1135 296.507 1125.47 287.12C1115.94 277.733 1110.8 264.387 1110.07 247.08C1109.92 245.613 1109.85 243.78 1109.85 241.58C1109.85 239.233 1109.92 237.4 1110.07 236.08C1110.66 225.08 1113.15 215.547 1117.55 207.48C1122.1 199.413 1128.33 193.253 1136.25 189C1144.17 184.6 1153.48 182.4 1164.19 182.4C1176.07 182.4 1186.04 184.893 1194.11 189.88C1202.18 194.72 1208.26 201.54 1212.37 210.34C1216.48 218.993 1218.53 229.04 1218.53 240.48V245.1C1218.53 246.567 1218.02 247.813 1216.99 248.84C1215.96 249.867 1214.64 250.38 1213.03 250.38H1139.99C1139.99 250.38 1139.99 250.6 1139.99 251.04C1139.99 251.48 1139.99 251.847 1139.99 252.14C1140.14 257.273 1141.09 262.04 1142.85 266.44C1144.76 270.693 1147.47 274.14 1150.99 276.78C1154.66 279.42 1158.98 280.74 1163.97 280.74C1168.08 280.74 1171.52 280.153 1174.31 278.98C1177.1 277.66 1179.37 276.193 1181.13 274.58C1182.89 272.967 1184.14 271.647 1184.87 270.62C1186.19 268.86 1187.22 267.833 1187.95 267.54C1188.83 267.1 1190.08 266.88 1191.69 266.88H1210.61C1212.08 266.88 1213.25 267.32 1214.13 268.2C1215.16 269.08 1215.6 270.18 1215.45 271.5C1215.3 273.847 1214.06 276.707 1211.71 280.08C1209.51 283.453 1206.28 286.753 1202.03 289.98C1197.78 293.207 1192.42 295.92 1185.97 298.12C1179.66 300.173 1172.4 301.2 1164.19 301.2ZM1139.99 231.9H1188.61V231.24C1188.61 225.52 1187.66 220.533 1185.75 216.28C1183.84 212.027 1181.06 208.653 1177.39 206.16C1173.72 203.667 1169.32 202.42 1164.19 202.42C1159.06 202.42 1154.66 203.667 1150.99 206.16C1147.32 208.653 1144.54 212.027 1142.63 216.28C1140.87 220.533 1139.99 225.52 1139.99 231.24V231.9ZM1291.38 301.2C1280.82 301.2 1271.51 299.22 1263.44 295.26C1255.52 291.3 1249.29 285.58 1244.74 278.1C1240.34 270.473 1237.92 261.307 1237.48 250.6C1237.34 248.4 1237.26 245.54 1237.26 242.02C1237.26 238.353 1237.34 235.347 1237.48 233C1237.92 222.293 1240.34 213.2 1244.74 205.72C1249.29 198.093 1255.52 192.3 1263.44 188.34C1271.51 184.38 1280.82 182.4 1291.38 182.4C1300.77 182.4 1308.76 183.72 1315.36 186.36C1321.96 189 1327.39 192.3 1331.64 196.26C1335.9 200.22 1339.05 204.4 1341.1 208.8C1343.3 213.053 1344.48 216.94 1344.62 220.46C1344.77 222.073 1344.26 223.393 1343.08 224.42C1342.06 225.3 1340.81 225.74 1339.34 225.74H1319.98C1318.52 225.74 1317.34 225.373 1316.46 224.64C1315.73 223.907 1315 222.807 1314.26 221.34C1312.06 215.473 1309.13 211.367 1305.46 209.02C1301.94 206.527 1297.4 205.28 1291.82 205.28C1284.49 205.28 1278.62 207.627 1274.22 212.32C1269.97 216.867 1267.7 224.127 1267.4 234.1C1267.11 239.673 1267.11 244.807 1267.4 249.5C1267.7 259.62 1269.97 266.953 1274.22 271.5C1278.62 276.047 1284.49 278.32 1291.82 278.32C1297.54 278.32 1302.16 277.147 1305.68 274.8C1309.2 272.307 1312.06 268.127 1314.26 262.26C1315 260.793 1315.73 259.693 1316.46 258.96C1317.34 258.227 1318.52 257.86 1319.98 257.86H1339.34C1340.81 257.86 1342.06 258.373 1343.08 259.4C1344.26 260.28 1344.77 261.527 1344.62 263.14C1344.48 265.78 1343.74 268.787 1342.42 272.16C1341.25 275.387 1339.27 278.76 1336.48 282.28C1333.84 285.653 1330.47 288.807 1326.36 291.74C1322.26 294.527 1317.27 296.8 1311.4 298.56C1305.68 300.32 1299.01 301.2 1291.38 301.2ZM1373.07 299C1371.6 299 1370.35 298.487 1369.33 297.46C1368.3 296.433 1367.79 295.187 1367.79 293.72V148.08C1367.79 146.613 1368.3 145.367 1369.33 144.34C1370.35 143.313 1371.6 142.8 1373.07 142.8H1390.89C1392.5 142.8 1393.75 143.313 1394.63 144.34C1395.65 145.367 1396.17 146.613 1396.17 148.08V223.32L1433.13 188.34C1434.45 187.167 1435.62 186.287 1436.65 185.7C1437.67 184.967 1439.21 184.6 1441.27 184.6H1461.73C1463.19 184.6 1464.37 185.04 1465.25 185.92C1466.13 186.8 1466.57 187.973 1466.57 189.44C1466.57 190.027 1466.42 190.687 1466.13 191.42C1465.83 192.153 1465.25 192.813 1464.37 193.4L1419.05 235.86L1469.87 290.42C1471.33 291.887 1472.07 293.133 1472.07 294.16C1472.07 295.627 1471.55 296.8 1470.53 297.68C1469.65 298.56 1468.55 299 1467.23 299H1446.33C1444.13 299 1442.51 298.707 1441.49 298.12C1440.61 297.387 1439.51 296.433 1438.19 295.26L1396.17 251.04V293.72C1396.17 295.187 1395.65 296.433 1394.63 297.46C1393.75 298.487 1392.5 299 1390.89 299H1373.07Z" fill="white"/>
<defs>
<clipPath id="clip0_35_30">
<rect width="197" height="256" fill="white" transform="translate(100 95)"/>
</clipPath>
</defs>
</svg>
