<svg width="200" height="200" viewBox="0 0 200 200" fill="none" xmlns="http://www.w3.org/2000/svg">
<path d="M42.2933 149.149C40.4927 149.161 38.8393 149.428 37.3169 149.827V160.471C39.1769 159.71 40.7545 159.23 42.3075 159.208C44.7179 159.26 47.0003 160.2 49.9888 161.556C53.0008 162.924 56.7396 164.731 61.5131 164.768L61.5702 164.77L61.6273 164.768C66.5043 164.695 70.3377 162.887 73.3682 161.51C76.3729 160.144 78.5753 159.238 80.7532 159.208C83.1636 159.26 85.446 160.2 88.4345 161.556C91.4465 162.924 95.1853 164.731 99.9588 164.768L100.016 164.77L100.073 164.768C104.95 164.695 108.783 162.887 111.814 161.51C114.819 160.144 117.023 159.238 119.201 159.208C121.61 159.261 123.894 160.2 126.882 161.556C129.894 162.924 133.631 164.732 138.404 164.77H138.462L138.519 164.768C143.396 164.695 147.231 162.887 150.261 161.51C153.266 160.144 155.468 159.239 157.646 159.208C159.29 159.244 160.89 159.715 162.68 160.427V149.825C161.165 149.441 159.527 149.179 157.746 149.151L157.689 149.149H157.632C152.854 149.183 149.113 150.994 146.102 152.362C143.115 153.72 140.836 154.66 138.426 154.71C136.248 154.679 134.042 153.771 131.036 152.407C128.005 151.031 124.173 149.227 119.301 149.151L119.244 149.149H119.186C114.408 149.183 110.667 150.994 107.657 152.362C104.669 153.72 102.391 154.66 99.9808 154.71C97.8022 154.679 95.5942 153.771 92.5886 152.407C89.5575 151.031 85.7276 149.226 80.855 149.149H80.739C75.9608 149.183 72.22 150.994 69.2092 152.362C66.2219 153.72 63.9449 154.66 61.5351 154.71C59.3566 154.679 57.1485 153.771 54.1429 152.407C51.1118 151.031 47.2801 149.226 42.4075 149.149L42.2933 149.149Z" fill="black"/>
<path d="M41.9132 119.66L41.8543 119.661C35.2707 119.709 29.9984 122.261 25.4407 124.365C25.2886 124.435 25.1506 124.493 25 124.563V135.516C26.6324 134.85 28.2025 134.158 29.6516 133.489C34.2054 131.387 37.9287 129.758 41.8684 129.714C46.1271 129.797 49.9722 131.467 54.51 133.559C59.069 135.66 64.3388 138.21 70.9163 138.262H71.0323C73.2942 138.228 75.3921 137.902 77.37 137.427C76.8967 135.589 76.6493 133.699 76.6331 131.801C76.6528 130.195 76.8382 128.595 77.1862 127.026C75.1148 127.722 73.0795 128.168 70.9378 128.208C66.9986 128.161 63.2709 126.532 58.7155 124.432C54.1373 122.322 48.7314 119.769 41.9702 119.661L41.9132 119.66ZM158.18 119.66L158.121 119.661C151.537 119.709 146.265 122.261 141.707 124.365C137.171 126.458 133.331 128.129 129.071 128.208C126.993 128.183 124.967 127.702 122.855 126.961C123.194 128.552 123.365 130.174 123.367 131.801C123.351 133.694 123.104 135.578 122.634 137.411C124.634 137.911 126.759 138.244 129.052 138.262H129.168C135.934 138.159 141.341 135.601 145.918 133.489C150.475 131.386 154.2 129.758 158.142 129.716C162.398 129.8 166.24 131.468 170.775 133.559C172.109 134.174 173.529 134.812 175 135.43V124.441C174.994 124.439 174.988 124.437 174.982 124.434C170.404 122.324 164.998 119.769 158.237 119.661L158.18 119.66Z" fill="black"/>
<path d="M106.945 42.9466C106.945 39.1101 103.835 36 99.9981 36C96.1616 36 93.0515 39.1101 93.0515 42.9466V127.314C93.0515 131.151 96.1616 134.261 99.9981 134.261C103.835 134.261 106.945 131.151 106.945 127.314V42.9466Z" fill="black"/>
<path d="M99.9981 143.875C106.667 143.875 112.072 138.469 112.072 131.8C112.072 125.132 106.667 119.726 99.9981 119.726C93.3297 119.726 87.9238 125.132 87.9238 131.8C87.9238 138.469 93.3297 143.875 99.9981 143.875Z" fill="black"/>
<path d="M99.9981 59.6041H139.07Z" fill="black"/>
<path d="M99.9981 59.6041H139.07" stroke="black" stroke-width="8"/>
<path d="M99.9981 103.055H139.07Z" fill="black"/>
<path d="M99.9981 103.055H139.07" stroke="black" stroke-width="8"/>
<path d="M99.9981 81.33H139.07Z" fill="black"/>
<path d="M99.9981 81.33H139.07" stroke="black" stroke-width="8"/>
</svg>
