<svg width="200" height="200" viewBox="0 0 200 200" fill="none" xmlns="http://www.w3.org/2000/svg">
<path d="M133.748 167.973C136.918 168.006 140.088 168.017 143.257 167.954C144.5 167.916 145.824 167.684 146.793 166.846C147.842 165.941 148.481 164.675 149.05 163.437C150.233 160.739 151.281 157.983 152.218 155.191C153.467 151.512 154.67 147.799 156.405 144.313C158.944 139.132 162.192 134.314 164.42 128.978C167.907 120.739 169.47 111.765 169.519 102.843C169.581 91.365 167.132 79.837 162.124 69.4922C160.269 65.6627 158.029 62.0165 155.406 58.6642C154.196 57.0796 152.968 55.4155 152.484 53.4459C152.113 51.8971 152.138 50.2906 152.154 48.7086C152.161 47.8223 152.272 46.9394 152.232 46.0527C152.195 43.9911 152.199 41.9224 151.965 39.8711C151.819 38.6072 151.482 37.3417 150.784 36.2647C150.33 35.5727 149.804 34.8927 149.103 34.4347C148.266 33.9372 147.265 33.9141 146.324 33.8015C144.285 33.6337 142.272 33.25 140.237 33.0626C139.201 32.9909 138.126 32.9139 137.124 33.2446C136.467 33.4852 135.895 33.9676 135.539 34.5684C135.135 35.3906 135.089 36.3272 135.013 37.2251C134.851 39.9882 134.903 42.758 134.884 45.5246C134.957 51.3508 137.526 57.1072 141.849 61.0208C144.065 63.0547 146.579 64.7552 148.647 66.9514C151.711 70.156 154.056 73.9831 155.953 77.9714C160.395 87.4052 161.975 98.1009 160.788 108.44C159.535 119.491 155.19 130.172 148.367 138.956C144.795 143.571 140.57 147.68 135.853 151.114H63.6689C54.58 144.504 47.3313 135.375 43.033 124.985C38.9741 115.238 37.4408 104.414 38.883 93.9399C39.9388 86.2167 42.5739 78.6713 46.8183 72.1159C48.616 69.3497 50.763 66.7936 53.3057 64.6817C55.5466 62.7895 57.9684 61.0611 59.8175 58.756C63.0248 54.8227 64.7763 49.7259 64.6331 44.6507C64.6215 42.098 64.6609 39.5414 64.4915 36.9928C64.4121 36.1521 64.3549 35.2725 63.9511 34.5135C63.4784 33.7638 62.6797 33.2169 61.7965 33.0916C60.455 32.8888 59.0937 33.0734 57.758 33.2345C56.1318 33.4582 54.5066 33.6946 52.8706 33.8361C51.9117 33.9452 50.8638 34.0173 50.0928 34.6678C48.824 35.7748 47.9799 37.3381 47.6933 38.9936C47.3754 40.7629 47.3645 42.5674 47.3149 44.3588C47.3062 45.2478 47.2699 46.138 47.2906 47.0263C47.3943 48.7108 47.4287 50.4061 47.2703 52.0883C47.1482 53.4163 46.7174 54.7053 46.0493 55.8575C44.9991 57.6953 43.5668 59.2712 42.374 61.0125C38.1598 67.0029 35.1213 73.7716 33.0634 80.7854C30.232 90.5155 29.3553 100.807 30.4668 110.877C31.3266 118.585 33.443 126.191 37.0309 133.083C39.5602 137.989 42.6163 142.635 44.6615 147.781C46.3833 152.067 47.6084 156.534 49.3669 160.805C50.0425 162.413 50.6364 164.075 51.5985 165.542C52.1997 166.464 53.0365 167.285 54.1104 167.616C55.4777 168.065 56.9367 167.947 58.353 167.987C60.8261 168.008 63.2993 168.004 65.7722 167.974C65.7721 165.19 65.772 162.407 65.7719 159.623C68.7435 159.623 71.7152 159.623 74.687 159.623V167.974H85.4596V159.623H94.3747V167.974H105.147C105.147 165.19 105.147 162.407 105.147 159.623H114.062V167.974H124.835V159.623H133.75V167.974L133.748 167.973Z" fill="black"/>
<path d="M99.7585 52.7221C95.603 52.7221 92.235 56.0911 92.235 60.2467C93.0902 76.9674 93.9832 93.765 94.8621 110.512C95.0012 113.117 97.152 115.156 99.7585 115.156C102.365 115.156 104.517 113.117 104.656 110.512C105.535 93.765 106.428 76.9674 107.283 60.2467C107.283 56.0912 103.914 52.7221 99.7585 52.7221Z" fill="black"/>
<path d="M99.7593 136.71C102.933 136.71 105.506 134.138 105.506 130.964C105.506 127.79 102.933 125.218 99.7593 125.218C96.5858 125.218 94.0131 127.79 94.0131 130.964C94.0131 134.138 96.5858 136.71 99.7593 136.71Z" fill="black"/>
</svg>
