<svg width="200" height="200" viewBox="0 0 200 200" fill="none" xmlns="http://www.w3.org/2000/svg">
<path d="M75.0453 98.2894C93.3506 98.2894 108.19 83.45 108.19 65.1447C108.19 46.8394 93.3506 32 75.0453 32C56.74 32 41.9006 46.8394 41.9006 65.1447C41.9006 83.45 56.74 98.2894 75.0453 98.2894Z" fill="black"/>
<path d="M135.005 69.7132C142.779 69.7132 149.08 63.4115 149.08 55.6381C149.08 47.8646 142.779 41.5629 135.005 41.5629C127.232 41.5629 120.93 47.8646 120.93 55.6381C120.93 63.4115 127.232 69.7132 135.005 69.7132Z" fill="black"/>
<path d="M52.6322 113.175L27.7001 148.559C24.7389 152.762 25.745 158.568 29.9472 161.529C34.1491 164.489 39.9551 163.483 42.9154 159.282L60.879 133.789C61.8137 132.462 63.1657 131.487 64.7194 131.018C66.273 130.55 67.9389 130.615 69.4513 131.203L94.0174 140.761L83.8251 112.969L63.7649 108.784C61.6832 108.35 59.5199 108.534 57.5417 109.315C55.5635 110.095 53.857 111.436 52.6322 113.175Z" fill="black"/>
<path d="M99.9537 107.853C97.2687 109.281 94.3999 110.333 91.4281 110.978L111.973 167H121.646L99.9537 107.853Z" fill="black"/>
<path d="M140.908 98.6707C143.491 94.3287 143.561 88.9271 141.092 84.5193C138.623 80.1112 133.983 77.3508 128.93 77.2848C123.879 77.2189 119.166 79.858 116.582 84.2L105.88 102.166L118.451 136.445L140.908 98.6707Z" fill="black"/>
<path d="M174.507 59.491L147.765 75.5367C149.671 77.9061 151.243 80.5266 152.435 83.3245L174.507 70.0812L174.507 59.491Z" fill="black"/>
</svg>
