<svg width="200" height="200" viewBox="0 0 200 200" fill="none" xmlns="http://www.w3.org/2000/svg">
<path fill-rule="evenodd" clip-rule="evenodd" d="M18.2465 154.065C14.0245 152.573 11 148.547 11 143.814V115.602C11 103.753 18.684 92.059 29.5937 89.9539C29.9161 88.0417 30.389 85.2378 30.898 82.2187H18.2465C16.2469 82.2187 14.6233 80.595 14.6233 78.5954C14.6233 76.5958 16.2469 74.9722 18.2465 74.9722H32.1204C32.9438 70.0894 33.6178 66.0925 33.6178 66.0925C35.7392 52.5976 38.9449 45.9893 43.0129 42.6137C47.2688 39.0824 52.7305 38.7396 60.0689 38.7396H108.828C110.828 38.7396 112.451 40.3632 112.451 42.3628C112.451 44.3624 110.828 45.9861 108.828 45.9861H60.0689C54.7731 45.9861 50.7118 45.6419 47.6402 48.1904C44.3838 50.892 42.4703 56.4306 40.7732 67.2379C40.771 67.2515 40.7692 67.265 40.7669 67.2782L37.0001 89.6138L154.605 89.4652H154.61C168.416 89.4652 177.67 102.17 177.67 115.602V143.814C177.67 148.547 174.645 152.573 170.423 154.066V166.092C170.423 175.807 162.603 183.67 152.987 183.67C143.37 183.67 135.55 175.807 135.55 166.092V154.684H53.5733V165.627C53.5733 175.615 45.6347 183.67 35.9099 183.67C26.1851 183.67 18.2465 175.615 18.2465 165.627V154.065ZM163.177 154.684H142.796V166.092C142.796 171.786 147.35 176.423 152.987 176.423C158.623 176.423 163.177 171.786 163.177 166.092V154.684ZM46.3268 154.684H25.493V165.627C25.493 171.562 30.1317 176.423 35.9099 176.423C41.6881 176.423 46.3268 171.562 46.3268 165.627V154.684ZM18.2465 115.602V143.814C18.2465 145.816 19.8688 147.437 21.8698 147.437H166.8C168.802 147.437 170.423 145.816 170.423 143.814V115.602C170.423 106.109 164.368 96.7122 154.611 96.7117L33.1209 96.8653H33.1164C24.1828 96.8653 18.2465 106.428 18.2465 115.602ZM42.7035 134.303C36.4502 134.303 31.3808 129.132 31.3808 122.754C31.3808 116.376 36.4502 111.205 42.7035 111.205C48.9568 111.205 54.0262 116.376 54.0262 122.754C54.0262 129.132 48.9568 134.303 42.7035 134.303ZM145.966 134.303C139.713 134.303 134.644 129.132 134.644 122.754C134.644 116.376 139.713 111.205 145.966 111.205C152.22 111.205 157.289 116.376 157.289 122.754C157.289 129.132 152.22 134.303 145.966 134.303ZM188.54 51.421C188.54 70.4309 173.129 85.842 154.119 85.842C135.109 85.842 119.698 70.4309 119.698 51.421C119.698 32.4106 135.109 17 154.119 17C173.129 17 188.54 32.4106 188.54 51.421ZM181.293 51.421C181.293 36.413 169.127 24.2465 154.119 24.2465C139.111 24.2465 126.944 36.413 126.944 51.421C126.944 66.429 139.111 78.5954 154.119 78.5954C169.127 78.5954 181.293 66.429 181.293 51.421Z" fill="#1A1A1A"/>
<path fill-rule="evenodd" clip-rule="evenodd" d="M172.333 55H151V33.6667C151 32.1947 152.195 31 153.667 31C155.139 31 156.333 32.1947 156.333 33.6667V49.6667H172.333C173.805 49.6667 175 50.8613 175 52.3333C175 53.8053 173.805 55 172.333 55Z" fill="#1A1A1A" stroke="#1A1A1A"/>
</svg>
