<svg width="200" height="200" viewBox="0 0 200 200" fill="none" xmlns="http://www.w3.org/2000/svg">
<g clip-path="url(#clip0_176_11)">
<line x1="17" y1="21" x2="62" y2="21" stroke="#1A1A1A" stroke-width="8"/>
<line x1="21" y1="18" x2="21" y2="63" stroke="#1A1A1A" stroke-width="8"/>
<line x1="179" y1="17" x2="179" y2="62" stroke="#1A1A1A" stroke-width="8"/>
<line x1="182" y1="21" x2="137" y2="21" stroke="#1A1A1A" stroke-width="8"/>
<line x1="183" y1="179" x2="138" y2="179" stroke="#1A1A1A" stroke-width="8"/>
<line x1="179" y1="182" x2="179" y2="137" stroke="#1A1A1A" stroke-width="8"/>
<line x1="21" y1="183" x2="21" y2="138" stroke="#1A1A1A" stroke-width="8"/>
<line x1="18" y1="179" x2="63" y2="179" stroke="#1A1A1A" stroke-width="8"/>
</g>
<path fill-rule="evenodd" clip-rule="evenodd" d="M100 58.3333C123.008 58.3333 141.667 76.9917 141.667 100C141.667 123.008 123.008 141.667 100 141.667C76.9917 141.667 58.3333 123.008 58.3333 100C58.3333 76.9917 76.9917 58.3333 100 58.3333ZM100 50C72.3833 50 50 72.3833 50 100C50 127.617 72.3833 150 100 150C127.617 150 150 127.617 150 100C150 72.3833 127.617 50 100 50ZM129.167 104.167H95.8333V70.8333C95.8333 68.5333 97.7 66.6667 100 66.6667C102.3 66.6667 104.167 68.5333 104.167 70.8333V95.8333H129.167C131.467 95.8333 133.333 97.7 133.333 100C133.333 102.3 131.467 104.167 129.167 104.167Z" fill="#1A1A1A"/>
<defs>
<clipPath id="clip0_176_11">
<rect x="17" y="17" width="166" height="166" rx="5" fill="white"/>
</clipPath>
</defs>
</svg>
