<svg width="200" height="200" viewBox="0 0 200 200" fill="none" xmlns="http://www.w3.org/2000/svg">
<path d="M37.5196 86.7779C37.5196 83.2078 40.4137 80.3137 43.9838 80.3137H49.5949C53.1649 80.3137 56.059 77.4196 56.059 73.8495V70.9305C56.059 67.3604 58.9531 64.4663 62.5232 64.4663H115.169C118.739 64.4663 121.633 67.3604 121.633 70.9305V73.8495C121.633 77.4196 124.528 80.3137 128.098 80.3137H146.993C150.563 80.3137 153.457 83.2078 153.457 86.7779V90.3759C153.457 93.946 156.352 96.8401 159.922 96.8401H160.639C164.209 96.8401 167.104 93.946 167.104 90.3759V79.4616C167.104 76.682 169.357 74.4288 172.136 74.4288C174.211 74.4912 176.014 75.8712 176.616 77.8573L181.362 91.9704C182.447 95.1959 183 98.5762 183 101.979V119.8C183 123.203 182.447 126.583 181.362 129.808L176.616 143.921C176.014 145.907 174.211 147.287 172.136 147.35C169.357 147.35 167.104 145.096 167.104 142.317V131.402C167.104 127.832 164.209 124.938 160.639 124.938H159.922C156.352 124.938 153.457 127.832 153.457 131.402V148.495C153.457 152.065 150.563 154.959 146.993 154.959H82.8419C81.1275 154.959 79.4833 154.278 78.2711 153.066L61.4403 136.235C60.228 135.022 58.5838 134.341 56.8695 134.341H43.9033C40.3332 134.341 37.4391 131.447 37.4391 127.877C37.4825 114.178 37.4981 100.478 37.5194 86.779L37.5196 86.7779Z" stroke="black" stroke-width="10"/>
<path d="M60.605 46V53.3876H77.916V64.4654H102.388V53.3876H119.697V46H60.605Z" fill="black"/>
<path d="M37.4965 101.811H24.6365V128.825L19.0958 123.285V99.1641L17 97.0684V75.0449L24.6365 67.4084V94.4231H37.5076L37.4965 101.811Z" fill="black"/>
</svg>
