<svg width="200" height="200" viewBox="0 0 200 200" fill="none" xmlns="http://www.w3.org/2000/svg">
<path d="M173.849 156.225L106.987 37.05C105.487 34.35 102.714 33 99.9405 33C97.1671 33 94.4686 34.35 92.8944 37.05L26.0316 156.225C23.0333 161.55 26.9311 168 33.0777 168H166.953C173.1 168 176.923 161.475 173.999 156.225H173.849ZM166.878 160.5H33.0028C33.0028 160.5 32.7029 160.5 32.553 159.9L99.4908 40.725C99.4908 40.725 99.6407 40.5 99.9405 40.5C100.24 40.5 100.39 40.65 100.39 40.725L167.328 160.2C167.328 160.2 166.953 160.425 166.878 160.425V160.5Z" fill="#1A1A1A"/>
<path d="M100.39 134.175C96.1926 134.175 92.8195 137.55 92.8195 141.75C92.8195 145.95 96.1926 149.325 100.39 149.325C104.588 149.325 107.961 145.95 107.961 141.75C107.961 137.55 104.588 134.175 100.39 134.175Z" fill="#1A1A1A"/>
<path d="M91.2454 82.275L94.7684 120.975C95.443 127.275 100.315 126.75 100.315 126.75C103.613 126.75 105.338 124.2 105.562 120.825L108.411 82.125C108.411 77.4 104.888 74.85 101.964 74.85H98.2914C95.2931 74.85 90.7956 77.25 91.2454 82.2V82.275Z" fill="#1A1A1A"/>
</svg>
