<svg width="200" height="200" viewBox="0 0 200 200" fill="none" xmlns="http://www.w3.org/2000/svg">
<path fill-rule="evenodd" clip-rule="evenodd" d="M150 25.0001C154.6 25.0001 158.333 28.7334 158.333 33.3334V166.667C158.333 171.267 154.6 175 150 175H50C45.4 175 41.6666 171.267 41.6666 166.667V33.3334C41.6666 28.7334 45.4 25.0001 50 25.0001H150ZM150 16.6667H50C40.7916 16.6667 33.3333 24.1251 33.3333 33.3334V166.667C33.3333 175.875 40.7916 183.333 50 183.333H150C159.208 183.333 166.667 175.875 166.667 166.667V33.3334C166.667 24.1251 159.208 16.6667 150 16.6667ZM137.5 50.0001H62.5C60.2 50.0001 58.3333 51.8668 58.3333 54.1668C58.3333 56.4668 60.2 58.3334 62.5 58.3334H137.5C139.8 58.3334 141.667 56.4668 141.667 54.1668C141.667 51.8668 139.8 50.0001 137.5 50.0001ZM137.5 75.0001H62.5C60.2 75.0001 58.3333 76.8668 58.3333 79.1668C58.3333 81.4668 60.2 83.3334 62.5 83.3334H137.5C139.8 83.3334 141.667 81.4668 141.667 79.1668C141.667 76.8668 139.8 75.0001 137.5 75.0001ZM137.5 100H62.5C60.2 100 58.3333 101.867 58.3333 104.167C58.3333 106.467 60.2 108.333 62.5 108.333H137.5C139.8 108.333 141.667 106.467 141.667 104.167C141.667 101.867 139.8 100 137.5 100ZM95.8333 125H62.5C60.2 125 58.3333 126.867 58.3333 129.167C58.3333 131.467 60.2 133.333 62.5 133.333H95.8333C98.1333 133.333 100 131.467 100 129.167C100 126.867 98.1333 125 95.8333 125Z" fill="#1A1A1A"/>
</svg>
