<svg width="200" height="200" viewBox="0 0 200 200" fill="none" xmlns="http://www.w3.org/2000/svg">
<path fill-rule="evenodd" clip-rule="evenodd" d="M100 66.6671C81.5917 66.6671 66.6667 81.5921 66.6667 100C66.6667 118.409 81.5917 133.334 100 133.334C118.408 133.334 133.333 118.409 133.333 100C133.333 81.5921 118.408 66.6671 100 66.6671ZM100 125C86.1917 125 75 113.809 75 100C75 86.1921 86.1917 75.0004 100 75.0004C113.808 75.0004 125 86.1921 125 100C125 113.809 113.808 125 100 125ZM161.833 109.167C162.283 106.425 162.542 103.267 162.542 100.042C162.542 96.8171 162.283 93.6587 161.792 90.5754L179.083 74.2504C179.55 73.7504 179.833 73.0754 179.833 72.3337C179.833 71.8504 179.708 71.3921 179.492 70.9837L164.917 46.0004C164.408 45.1921 163.525 44.6671 162.517 44.6671C162.275 44.6671 162.042 44.7004 161.817 44.7504L138.833 51.3254C134.3 47.4504 129.067 44.2004 123.392 41.8004L117.167 18.4004C116.733 17.3754 115.742 16.6671 114.583 16.6504H85.4167C84.2 16.7087 83.1833 17.5171 82.8417 18.6337L77 41.6504C70.9417 44.0337 65.7083 47.1254 61.0583 50.9004L38.1667 44.4837C37.9667 44.4337 37.725 44.4004 37.4833 44.4004C36.475 44.4004 35.5917 44.9254 35.0833 45.7254L20.4917 70.7337C20.2833 71.1171 20.1583 71.5754 20.1583 72.0671C20.1583 72.8087 20.4417 73.4837 20.9083 73.9921L38.1583 90.6587C37.7083 93.4004 37.45 96.5587 37.45 99.7837C37.45 103.009 37.7083 106.167 38.2 109.25L20.9083 125.575C20.4417 126.075 20.1583 126.75 20.1583 127.492C20.1583 127.975 20.2833 128.434 20.5 128.842L35.075 153.825C35.5833 154.634 36.4667 155.159 37.475 155.159C37.7167 155.159 37.95 155.125 38.175 155.075L61.1583 148.5C65.6917 152.442 70.9167 155.742 76.6083 158.184L82.825 181.584C83.175 182.717 84.1917 183.525 85.4 183.584H114.575C115.792 183.525 116.808 182.717 117.15 181.6L122.992 158.334C129.05 155.95 134.283 152.859 138.933 149.084L161.825 155.75C162.025 155.8 162.267 155.834 162.508 155.834C163.517 155.834 164.4 155.309 164.908 154.509L179.5 129.5C179.708 129.117 179.833 128.659 179.833 128.167C179.833 127.425 179.55 126.75 179.083 126.242L161.833 109.167ZM169.167 130.334L160.833 144.75C160.325 145.55 159.442 146.067 158.442 146.067C158.225 146.067 158.017 146.042 157.817 146L145.833 142.5L136.583 139.917L135.083 141.25L134.25 141.917L133.583 142.5L131.167 144.334L128.917 145.834L127 147L125 148.084L122.667 149.25L119.917 150.417H118.083L116.25 151L113.917 160.334L110.833 172.417C110.717 173.767 109.675 174.842 108.35 175H91.6667C90.45 174.942 89.4333 174.134 89.0917 173.017L86.0833 160.917L83.75 151.584L81.8333 151H79.9167L77.1667 149.834L75.8333 149.167L75 147.917L73.0833 146.834L71.1667 145.667L70.1667 145L69 144.167L65.6667 141.667L64.9167 141L63.5833 139.75L54.3333 142.334L42.3333 145.75C42.1333 145.8 41.8917 145.834 41.65 145.834C40.6417 145.834 39.7583 145.309 39.25 144.509L30.9083 130.084C30.7167 129.709 30.6083 129.275 30.6083 128.809C30.6083 128.042 30.9167 127.342 31.4083 126.834L40.4083 118.5L47.325 111.834C47.325 111.167 47.325 110.5 46.9083 109.834V107.917C46.9083 106.917 46.9083 105.917 46.9083 104.917C46.9083 103.917 46.9083 103.917 46.9083 103.5C46.9083 103.084 46.9083 102.75 46.9083 102.334C46.9083 101.917 46.9083 100.834 46.9083 100.084C46.9083 99.3337 46.9083 98.5837 46.9083 97.8337C46.9083 97.0837 46.9083 97.0837 46.9083 96.6671C46.9083 96.2504 46.9083 95.6671 46.9083 95.2504C46.9083 94.8337 46.9083 93.2504 46.9083 92.2504V90.3337C46.9083 89.7504 46.9083 89.1671 46.9083 88.5837L40.2417 81.6671L31.325 73.3337C30.8583 72.8337 30.575 72.1587 30.575 71.4171C30.575 70.9337 30.7 70.4754 30.9167 70.0671L39.2417 55.6671C39.75 54.8587 40.6333 54.3337 41.6417 54.3337C41.8833 54.3337 42.1167 54.3671 42.3417 54.4171L54.1583 57.4921L63.4083 60.0754L64.9083 58.7421L65.6583 58.3254L66.6583 57.5754L69.075 55.7421L71.325 54.2421L73.2417 53.0754L74.9917 52.0754L76.075 51.4921L77.4083 50.8254L80.075 49.9921H81.9083L83.325 48.4921L85.7417 39.1587L88.825 27.0754C89.1667 25.8671 90.2583 24.9921 91.5583 24.9921C91.5917 24.9921 91.625 24.9921 91.6667 24.9921H108.325C109.542 25.0504 110.558 25.8587 110.9 26.9754L113.908 39.0754L116.242 48.4087L118.158 48.9921H119.992L122.742 50.1587L124.075 50.8254L125.158 51.4087L127.158 52.4921L129.075 53.6587L131.325 55.1587L133.742 56.9921L134.408 57.5754L135.242 58.2421L136.658 59.4921L145.908 56.8254L157.908 53.4087C158.108 53.3587 158.35 53.3254 158.592 53.3254C159.6 53.3254 160.483 53.8504 160.992 54.6504L169.333 69.0754C169.525 69.4504 169.633 69.8837 169.633 70.3504C169.633 71.1171 169.325 71.8171 168.833 72.3254L159.833 80.6587L152.917 87.3254C152.917 87.9921 152.917 88.6587 153.333 89.3254V91.2421C153.333 92.2421 153.333 93.2421 153.333 94.2421C153.333 94.7421 153.333 95.2421 153.333 95.6587C153.333 96.0754 153.333 96.4921 153.333 96.8254C153.333 97.1587 153.333 98.3254 153.333 99.0754C153.333 99.8254 153.333 100.575 153.333 101.325V102.492C153.333 102.992 153.333 103.492 153.333 103.992C153.333 104.492 153.333 105.992 153.333 106.992V108.909C153.333 109.492 153.333 110.159 153.333 110.742L160.25 117.409L169.167 125.742C169.825 126.267 170.233 127.067 170.233 127.959C170.233 128.892 169.783 129.717 169.083 130.234L169.167 130.334Z" fill="#1A1A1A"/>
</svg>
