<svg width="200" height="200" viewBox="0 0 200 200" fill="none" xmlns="http://www.w3.org/2000/svg">
<path d="M100 16.6667C54.0001 16.6667 16.6667 54.0001 16.6667 100C16.6667 146 54.0001 183.333 100 183.333C146 183.333 183.333 146 183.333 100C183.333 54.0001 146 16.6667 100 16.6667ZM100 175C58.6668 175 25.0001 141.333 25.0001 100C25.0001 58.6668 58.6668 25.0001 100 25.0001C141.333 25.0001 175 58.6668 175 100C175 141.333 141.333 175 100 175Z" fill="#1A1A1A"/>
<path d="M98.0834 134.083C93.4168 134.083 89.5834 137.917 89.5834 142.583C89.5834 147.25 93.4168 151.083 98.0834 151.083C102.75 151.083 106.667 147.25 106.667 142.583C106.667 137.917 102.833 134.083 98.0834 134.083Z" fill="#1A1A1A"/>
<path d="M100.25 49.0001C91.6668 49.0001 84.6668 51.1667 79.5001 55.5001C73.7501 60.1668 70.3334 66.6667 70.3334 72.8334C70.3334 76.3334 72.4168 78.5834 75.6668 78.5834C78.9168 78.5834 80.3334 76.5834 81.5834 73.4168C84.9168 64.2501 90.9168 60.0001 100.417 60.0001C109.917 60.0001 117.333 66.0001 117.333 74.5001C117.333 81.2501 114.75 85.4168 106.25 92.1668C94.6668 101.417 91.7501 106.583 91.7501 117C91.7501 120.917 94.1668 123.5 97.8334 123.5C100.417 123.5 103.583 122.333 104 117C104.583 109.583 105.917 106.75 115.167 99.4168C125.917 90.7501 129.917 84.0001 129.917 74.5834C129.917 59.5001 117.75 49.0001 100.25 49.0001Z" fill="#1A1A1A"/>
</svg>
